<svg width="1440" height="825" viewBox="0 0 1440 825" fill="none" xmlns="http://www.w3.org/2000/svg">
<rect width="1440" height="825" fill="url(#paint0_linear_261_7471)"/>
<path d="M73.0651 428.789C73.9758 428.12 75.2932 428.793 76.0075 430.292C76.7219 431.791 76.5627 433.548 75.652 434.218C74.7414 434.887 73.4241 434.214 72.7098 432.715C71.9954 431.216 72.1545 429.458 73.0651 428.789Z" fill="white"/>
<path d="M456.065 788.716C456.976 788.047 458.293 788.72 459.007 790.219C459.722 791.718 459.563 793.476 458.652 794.145C457.741 794.814 456.424 794.141 455.71 792.642C454.995 791.143 455.154 789.385 456.065 788.716Z" fill="white"/>
<path d="M270.286 375.49C271.197 374.821 272.514 375.494 273.228 376.993C273.943 378.492 273.784 380.25 272.873 380.919C271.962 381.588 270.645 380.916 269.931 379.416C269.216 377.917 269.376 376.16 270.286 375.49Z" fill="white"/>
<path d="M653.286 735.416C654.197 734.747 655.514 735.419 656.229 736.919C656.943 738.418 656.784 740.176 655.873 740.845C654.963 741.514 653.645 740.841 652.931 739.342C652.216 737.843 652.376 736.085 653.286 735.416Z" fill="white"/>
<path d="M467.511 322.195C468.421 321.526 469.738 322.199 470.453 323.698C471.167 325.197 471.008 326.955 470.098 327.624C469.187 328.293 467.87 327.621 467.155 326.121C466.441 324.622 466.6 322.865 467.511 322.195Z" fill="white"/>
<path d="M916.959 798.207C917.869 797.538 919.187 798.211 919.901 799.71C920.615 801.209 920.456 802.967 919.546 803.636C918.635 804.305 917.318 803.632 916.603 802.133C915.889 800.634 916.048 798.876 916.959 798.207Z" fill="white"/>
<path d="M714.694 397.102C715.605 396.433 716.922 397.106 717.637 398.605C718.351 400.104 718.192 401.862 717.282 402.531C716.371 403.2 715.054 402.527 714.339 401.028C713.625 399.529 713.784 397.771 714.694 397.102Z" fill="white"/>
<path d="M998.871 530.953C999.781 530.284 1001.1 530.957 1001.81 532.456C1002.53 533.955 1002.37 535.713 1001.46 536.382C1000.55 537.051 999.23 536.378 998.515 534.879C997.801 533.38 997.96 531.622 998.871 530.953Z" fill="white"/>
<path d="M813.095 117.733C814.006 117.064 815.323 117.737 816.037 119.236C816.752 120.735 816.593 122.493 815.682 123.162C814.772 123.831 813.454 123.158 812.74 121.659C812.025 120.16 812.185 118.402 813.095 117.733Z" fill="white"/>
<path d="M1329.71 795.435C1330.62 794.766 1331.94 795.439 1332.65 796.938C1333.37 798.437 1333.21 800.195 1332.3 800.864C1331.39 801.533 1330.07 800.86 1329.36 799.361C1328.64 797.862 1328.8 796.104 1329.71 795.435Z" fill="white"/>
<path d="M1127.45 394.33C1128.36 393.661 1129.68 394.334 1130.39 395.833C1131.1 397.332 1130.95 399.09 1130.03 399.759C1129.12 400.429 1127.81 399.756 1127.09 398.256C1126.38 396.757 1126.54 394.999 1127.45 394.33Z" fill="white"/>
<path d="M1256.66 165.612C1257.57 164.943 1258.89 165.616 1259.6 167.115C1260.32 168.614 1260.16 170.372 1259.25 171.041C1258.34 171.71 1257.02 171.037 1256.31 169.538C1255.59 168.039 1255.75 166.281 1256.66 165.612Z" fill="white"/>
<path d="M1360.56 15.9751C1361.02 15.6405 1361.67 15.977 1362.03 16.7266C1362.39 17.4762 1362.31 18.3551 1361.85 18.6896C1361.4 19.0241 1360.74 18.6876 1360.38 17.9381C1360.03 17.1885 1360.1 16.3096 1360.56 15.9751Z" fill="white"/>
<path d="M1425.38 107.615C1426.29 106.946 1427.6 107.618 1428.32 109.118C1429.03 110.617 1428.87 112.374 1427.96 113.043C1427.05 113.713 1425.74 113.04 1425.02 111.541C1424.31 110.042 1424.47 108.284 1425.38 107.615Z" fill="white"/>
<path d="M139.445 478.097C140.356 477.428 141.673 478.101 142.387 479.6C143.102 481.099 142.942 482.857 142.032 483.526C141.121 484.195 139.804 483.522 139.09 482.023C138.375 480.524 138.534 478.766 139.445 478.097Z" fill="white"/>
<path d="M336.67 424.802C337.581 424.133 338.898 424.806 339.613 426.305C340.327 427.804 340.168 429.562 339.257 430.231C338.347 430.9 337.029 430.228 336.315 428.729C335.601 427.229 335.76 425.472 336.67 424.802Z" fill="white"/>
<path d="M583.853 499.709C584.764 499.04 586.081 499.713 586.796 501.212C587.51 502.711 587.351 504.469 586.44 505.138C585.529 505.807 584.212 505.135 583.498 503.635C582.783 502.136 582.943 500.378 583.853 499.709Z" fill="white"/>
<path d="M398.078 86.4889C398.988 85.8197 400.305 86.4927 401.02 87.9919C401.734 89.491 401.575 91.2488 400.665 91.9179C399.754 92.587 398.437 91.9142 397.722 90.415C397.008 88.9158 397.167 87.158 398.078 86.4889Z" fill="white"/>
<path d="M868.032 633.56C868.942 632.891 870.259 633.564 870.974 635.063C871.688 636.562 871.529 638.32 870.619 638.989C869.708 639.658 868.391 638.985 867.676 637.486C866.962 635.987 867.121 634.229 868.032 633.56Z" fill="white"/>
<path d="M682.254 220.34C683.164 219.671 684.482 220.344 685.196 221.843C685.91 223.342 685.751 225.1 684.841 225.769C683.93 226.438 682.613 225.765 681.898 224.266C681.184 222.767 681.343 221.009 682.254 220.34Z" fill="white"/>
<path d="M996.607 496.937C997.517 496.268 998.835 496.941 999.549 498.44C1000.26 499.939 1000.1 501.697 999.194 502.366C998.283 503.036 996.966 502.363 996.251 500.863C995.537 499.364 995.696 497.606 996.607 496.937Z" fill="white"/>
<path d="M810.83 83.7132C811.741 83.0441 813.058 83.7169 813.772 85.2161C814.487 86.7152 814.327 88.473 813.417 89.1421C812.506 89.8113 811.189 89.1384 810.474 87.6392C809.76 86.1401 809.919 84.3824 810.83 83.7132Z" fill="white"/>
<path d="M1328.09 669.327C1329 668.658 1330.32 669.331 1331.03 670.83C1331.74 672.329 1331.59 674.087 1330.68 674.756C1329.76 675.425 1328.45 674.752 1327.73 673.253C1327.02 671.754 1327.18 669.996 1328.09 669.327Z" fill="white"/>
<path d="M1125.82 268.219C1126.73 267.55 1128.05 268.223 1128.76 269.722C1129.48 271.221 1129.32 272.979 1128.41 273.648C1127.5 274.317 1126.18 273.644 1125.47 272.145C1124.75 270.646 1124.91 268.888 1125.82 268.219Z" fill="white"/>
<path d="M1357.6 270.156C1358.06 269.821 1358.72 270.157 1359.07 270.907C1359.43 271.656 1359.35 272.535 1358.9 272.87C1358.44 273.204 1357.78 272.868 1357.42 272.118C1357.07 271.369 1357.15 270.49 1357.6 270.156Z" fill="white"/>
<path d="M1260.59 66.5776C1261.05 66.243 1261.71 66.5795 1262.06 67.3291C1262.42 68.0787 1262.34 68.9576 1261.89 69.2922C1261.43 69.6267 1260.77 69.2903 1260.42 68.5406C1260.06 67.791 1260.14 66.9121 1260.59 66.5776Z" fill="white"/>
<path d="M1430.52 399.816C1430.97 399.481 1431.63 399.818 1431.99 400.567C1432.35 401.317 1432.27 402.196 1431.81 402.53C1431.36 402.865 1430.7 402.528 1430.34 401.779C1429.98 401.029 1430.06 400.15 1430.52 399.816Z" fill="white"/>
<path d="M1333.51 196.239C1333.97 195.904 1334.62 196.241 1334.98 196.99C1335.34 197.74 1335.26 198.619 1334.8 198.953C1334.35 199.288 1333.69 198.951 1333.33 198.202C1332.98 197.452 1333.05 196.573 1333.51 196.239Z" fill="white"/>
<path d="M1423.74 525.744C1424.2 525.41 1424.85 525.746 1425.21 526.496C1425.57 527.245 1425.49 528.124 1425.03 528.459C1424.58 528.793 1423.92 528.457 1423.56 527.707C1423.21 526.958 1423.29 526.079 1423.74 525.744Z" fill="white"/>
<path d="M1326.73 322.165C1327.19 321.831 1327.84 322.167 1328.2 322.917C1328.56 323.666 1328.48 324.545 1328.02 324.88C1327.57 325.214 1326.91 324.878 1326.55 324.128C1326.2 323.378 1326.28 322.5 1326.73 322.165Z" fill="white"/>
<path d="M1229.72 118.582C1230.17 118.248 1230.83 118.584 1231.19 119.334C1231.55 120.083 1231.47 120.962 1231.01 121.297C1230.56 121.631 1229.9 121.295 1229.54 120.545C1229.18 119.795 1229.26 118.917 1229.72 118.582Z" fill="white"/>
<path d="M1435.04 315.874C1435.5 315.539 1436.16 315.876 1436.52 316.625C1436.87 317.375 1436.79 318.254 1436.34 318.588C1435.88 318.923 1435.22 318.587 1434.87 317.837C1434.51 317.087 1434.59 316.208 1435.04 315.874Z" fill="white"/>
<path d="M1338.03 112.286C1338.49 111.951 1339.14 112.288 1339.5 113.037C1339.86 113.787 1339.78 114.666 1339.32 115C1338.87 115.335 1338.21 114.998 1337.85 114.249C1337.5 113.499 1337.57 112.62 1338.03 112.286Z" fill="white"/>
<path d="M1294.54 210.222C1295.45 209.553 1296.77 210.226 1297.48 211.725C1298.19 213.224 1298.04 214.981 1297.12 215.651C1296.21 216.32 1294.9 215.647 1294.18 214.148C1293.47 212.649 1293.63 210.891 1294.54 210.222Z" fill="white"/>
<path d="M1345.58 229.514C1346.49 228.844 1347.81 229.517 1348.52 231.017C1349.24 232.516 1349.08 234.274 1348.17 234.943C1347.26 235.612 1345.94 234.939 1345.23 233.44C1344.51 231.941 1344.67 230.183 1345.58 229.514Z" fill="white"/>
<path d="M1380.69 110.253C1381.15 109.919 1381.23 109.04 1380.87 108.29C1380.51 107.541 1379.86 107.204 1379.4 107.539C1378.94 107.873 1378.87 108.752 1379.22 109.502C1379.58 110.251 1380.24 110.588 1380.69 110.253Z" fill="white"/>
<path d="M1421.28 172.059C1421.73 171.725 1421.81 170.846 1421.45 170.096C1421.1 169.347 1420.44 169.01 1419.98 169.345C1419.53 169.679 1419.45 170.558 1419.81 171.308C1420.16 172.057 1420.82 172.394 1421.28 172.059Z" fill="white"/>
<path d="M1399.66 189.77C1400.57 189.101 1400.73 187.343 1400.02 185.844C1399.3 184.345 1397.99 183.672 1397.08 184.342C1396.17 185.011 1396.01 186.768 1396.72 188.268C1397.44 189.767 1398.75 190.44 1399.66 189.77Z" fill="white"/>
<path d="M1414.1 118.694C1414.56 118.36 1414.64 117.481 1414.28 116.731C1413.92 115.982 1413.26 115.645 1412.81 115.98C1412.35 116.315 1412.27 117.193 1412.63 117.943C1412.99 118.692 1413.65 119.029 1414.1 118.694Z" fill="white"/>
<path d="M8.60472 580.704C9.51534 580.035 10.8326 580.708 11.547 582.207C12.2613 583.706 12.1022 585.464 11.1916 586.133C10.281 586.802 8.9637 586.13 8.24933 584.63C7.53497 583.131 7.69411 581.374 8.60472 580.704Z" fill="white"/>
<path d="M205.829 527.41C206.74 526.74 208.057 527.413 208.771 528.912C209.486 530.412 209.327 532.169 208.416 532.839C207.505 533.508 206.188 532.835 205.474 531.336C204.759 529.836 204.918 528.079 205.829 527.41Z" fill="white"/>
<path d="M20.0502 114.183C20.9608 113.514 22.278 114.187 22.9924 115.686C23.7068 117.185 23.5477 118.943 22.637 119.612C21.7264 120.281 20.4091 119.608 19.6948 118.109C18.9804 116.61 19.1395 114.852 20.0502 114.183Z" fill="white"/>
<path d="M453.013 602.316C453.923 601.647 455.241 602.32 455.955 603.819C456.67 605.318 456.511 607.076 455.6 607.745C454.689 608.415 453.372 607.742 452.658 606.242C451.943 604.743 452.102 602.985 453.013 602.316Z" fill="white"/>
<path d="M267.237 189.096C268.148 188.427 269.465 189.1 270.18 190.599C270.894 192.098 270.735 193.856 269.824 194.525C268.914 195.194 267.596 194.521 266.882 193.022C266.168 191.523 266.327 189.765 267.237 189.096Z" fill="white"/>
<path d="M737.19 736.167C738.101 735.498 739.418 736.171 740.133 737.67C740.847 739.169 740.688 740.927 739.777 741.596C738.867 742.265 737.549 741.592 736.835 740.093C736.121 738.594 736.28 736.836 737.19 736.167Z" fill="white"/>
<path d="M551.414 322.947C552.324 322.278 553.642 322.951 554.356 324.45C555.07 325.949 554.911 327.707 554.001 328.376C553.09 329.045 551.773 328.372 551.058 326.873C550.344 325.374 550.503 323.616 551.414 322.947Z" fill="white"/>
<path d="M865.766 599.544C866.677 598.875 867.994 599.548 868.709 601.047C869.423 602.547 869.264 604.304 868.354 604.973C867.443 605.643 866.125 604.97 865.411 603.471C864.697 601.971 864.856 600.214 865.766 599.544Z" fill="white"/>
<path d="M679.989 186.32C680.899 185.651 682.216 186.324 682.931 187.823C683.645 189.322 683.486 191.08 682.575 191.749C681.665 192.418 680.347 191.746 679.633 190.246C678.919 188.747 679.078 186.99 679.989 186.32Z" fill="white"/>
<path d="M1197.25 771.934C1198.16 771.265 1199.48 771.938 1200.19 773.437C1200.9 774.936 1200.75 776.694 1199.83 777.363C1198.92 778.032 1197.61 777.359 1196.89 775.86C1196.18 774.361 1196.34 772.603 1197.25 771.934Z" fill="white"/>
<path d="M994.982 370.826C995.892 370.157 997.209 370.83 997.924 372.329C998.638 373.828 998.479 375.586 997.568 376.255C996.658 376.924 995.341 376.251 994.626 374.752C993.912 373.253 994.071 371.495 994.982 370.826Z" fill="white"/>
<path d="M1323.77 576.347C1324.23 576.012 1324.89 576.349 1325.24 577.098C1325.6 577.848 1325.52 578.727 1325.07 579.061C1324.61 579.396 1323.95 579.06 1323.59 578.31C1323.24 577.56 1323.32 576.682 1323.77 576.347Z" fill="white"/>
<path d="M1226.76 372.763C1227.22 372.428 1227.87 372.764 1228.23 373.514C1228.59 374.263 1228.51 375.142 1228.05 375.477C1227.6 375.811 1226.94 375.475 1226.58 374.726C1226.23 373.976 1226.31 373.097 1226.76 372.763Z" fill="white"/>
<path d="M1129.75 169.185C1130.21 168.85 1130.87 169.187 1131.22 169.936C1131.58 170.686 1131.5 171.565 1131.05 171.899C1130.59 172.234 1129.93 171.897 1129.57 171.148C1129.22 170.398 1129.3 169.519 1129.75 169.185Z" fill="white"/>
<path d="M1396.69 706.012C1397.15 705.677 1397.8 706.013 1398.16 706.763C1398.52 707.513 1398.44 708.392 1397.98 708.726C1397.53 709.061 1396.87 708.724 1396.51 707.975C1396.16 707.225 1396.24 706.346 1396.69 706.012Z" fill="white"/>
<path d="M1299.68 502.423C1300.13 502.088 1300.79 502.425 1301.15 503.174C1301.51 503.924 1301.43 504.803 1300.97 505.137C1300.52 505.472 1299.86 505.135 1299.5 504.386C1299.14 503.636 1299.22 502.757 1299.68 502.423Z" fill="white"/>
<path d="M1202.67 298.845C1203.13 298.511 1203.78 298.847 1204.14 299.597C1204.5 300.346 1204.42 301.225 1203.96 301.56C1203.51 301.894 1202.85 301.558 1202.49 300.809C1202.13 300.059 1202.21 299.18 1202.67 298.845Z" fill="white"/>
<path d="M1105.66 95.2661C1106.11 94.9315 1106.77 95.268 1107.13 96.0176C1107.49 96.7673 1107.41 97.6461 1106.95 97.9807C1106.5 98.3153 1105.84 97.9788 1105.48 97.2292C1105.12 96.4795 1105.2 95.6007 1105.66 95.2661Z" fill="white"/>
<path d="M1292.9 628.351C1293.35 628.017 1294.01 628.353 1294.37 629.103C1294.73 629.852 1294.65 630.731 1294.19 631.066C1293.74 631.4 1293.08 631.064 1292.72 630.314C1292.36 629.565 1292.44 628.686 1292.9 628.351Z" fill="white"/>
<path d="M1195.89 424.772C1196.34 424.438 1197 424.774 1197.36 425.524C1197.72 426.273 1197.64 427.152 1197.18 427.487C1196.73 427.821 1196.07 427.485 1195.71 426.735C1195.35 425.986 1195.43 425.107 1195.89 424.772Z" fill="white"/>
<path d="M1098.88 221.189C1099.33 220.855 1099.99 221.191 1100.35 221.941C1100.71 222.69 1100.63 223.569 1100.17 223.904C1099.72 224.238 1099.06 223.902 1098.7 223.152C1098.34 222.402 1098.42 221.524 1098.88 221.189Z" fill="white"/>
<path d="M1001.87 17.6041C1002.32 17.2696 1002.98 17.606 1003.34 18.3555C1003.69 19.1051 1003.61 19.9839 1003.16 20.3185C1002.7 20.653 1002.05 20.3165 1001.69 19.5669C1001.33 18.8174 1001.41 17.9386 1001.87 17.6041Z" fill="white"/>
<path d="M1401.21 622.061C1401.67 621.726 1402.33 622.063 1402.68 622.812C1403.04 623.562 1402.96 624.44 1402.51 624.775C1402.05 625.11 1401.39 624.773 1401.03 624.024C1400.68 623.274 1400.76 622.395 1401.21 622.061Z" fill="white"/>
<path d="M1304.2 418.481C1304.66 418.146 1305.32 418.483 1305.67 419.232C1306.03 419.982 1305.95 420.861 1305.5 421.196C1305.04 421.53 1304.38 421.194 1304.03 420.444C1303.67 419.694 1303.75 418.815 1304.2 418.481Z" fill="white"/>
<path d="M1207.19 214.893C1207.64 214.558 1208.3 214.895 1208.66 215.644C1209.02 216.394 1208.94 217.273 1208.48 217.607C1208.03 217.942 1207.37 217.605 1207.01 216.856C1206.65 216.106 1206.73 215.227 1207.19 214.893Z" fill="white"/>
<path d="M1365.96 713.927C1366.87 713.258 1368.18 713.931 1368.9 715.43C1369.61 716.929 1369.45 718.687 1368.54 719.356C1367.63 720.025 1366.32 719.352 1365.6 717.853C1364.89 716.354 1365.05 714.596 1365.96 713.927Z" fill="white"/>
<path d="M1163.7 312.829C1164.61 312.16 1165.92 312.833 1166.64 314.332C1167.35 315.831 1167.19 317.588 1166.28 318.257C1165.37 318.927 1164.06 318.254 1163.34 316.755C1162.63 315.256 1162.79 313.498 1163.7 312.829Z" fill="white"/>
<path d="M1214.74 332.121C1215.65 331.451 1216.97 332.124 1217.68 333.623C1218.4 335.123 1218.24 336.88 1217.33 337.55C1216.42 338.219 1215.1 337.546 1214.39 336.047C1213.67 334.548 1213.83 332.79 1214.74 332.121Z" fill="white"/>
<path d="M1249.85 212.861C1250.31 212.526 1250.39 211.647 1250.03 210.897C1249.67 210.148 1249.01 209.812 1248.56 210.146C1248.1 210.481 1248.02 211.359 1248.38 212.109C1248.74 212.859 1249.4 213.195 1249.85 212.861Z" fill="white"/>
<path d="M1346.86 416.443C1347.32 416.109 1347.4 415.23 1347.04 414.48C1346.68 413.73 1346.03 413.394 1345.57 413.729C1345.12 414.063 1345.04 414.942 1345.39 415.692C1345.75 416.441 1346.41 416.778 1346.86 416.443Z" fill="white"/>
<path d="M1193.43 71.083C1193.88 70.7484 1193.96 69.8695 1193.6 69.1199C1193.25 68.3703 1192.59 68.0339 1192.13 68.3685C1191.68 68.7031 1191.6 69.582 1191.95 70.3316C1192.31 71.0812 1192.97 71.4176 1193.43 71.083Z" fill="white"/>
<path d="M1290.44 274.666C1290.89 274.332 1290.97 273.453 1290.61 272.703C1290.26 271.954 1289.6 271.617 1289.14 271.952C1288.69 272.286 1288.61 273.165 1288.96 273.915C1289.32 274.664 1289.98 275.001 1290.44 274.666Z" fill="white"/>
<path d="M1387.45 478.251C1387.9 477.916 1387.98 477.037 1387.63 476.288C1387.27 475.538 1386.61 475.202 1386.16 475.537C1385.7 475.871 1385.62 476.75 1385.98 477.5C1386.34 478.249 1386.99 478.586 1387.45 478.251Z" fill="white"/>
<path d="M1254.86 106.57C1255.31 106.235 1255.39 105.357 1255.04 104.607C1254.68 103.857 1254.02 103.521 1253.57 103.856C1253.11 104.19 1253.03 105.069 1253.39 105.819C1253.75 106.568 1254.4 106.905 1254.86 106.57Z" fill="white"/>
<path d="M1351.87 310.155C1352.33 309.821 1352.41 308.942 1352.05 308.192C1351.69 307.443 1351.03 307.106 1350.58 307.441C1350.12 307.775 1350.04 308.654 1350.4 309.404C1350.76 310.153 1351.42 310.49 1351.87 310.155Z" fill="white"/>
<path d="M1268.82 292.378C1269.73 291.708 1269.89 289.951 1269.18 288.451C1268.46 286.952 1267.15 286.279 1266.24 286.949C1265.32 287.618 1265.17 289.376 1265.88 290.875C1266.59 292.374 1267.91 293.047 1268.82 292.378Z" fill="white"/>
<path d="M1334.83 212.727C1335.29 212.392 1335.37 211.513 1335.01 210.764C1334.65 210.014 1333.99 209.678 1333.54 210.012C1333.08 210.347 1333 211.226 1333.36 211.975C1333.72 212.725 1334.37 213.061 1334.83 212.727Z" fill="white"/>
<path d="M1431.84 416.311C1432.3 415.977 1432.38 415.098 1432.02 414.348C1431.66 413.599 1431 413.263 1430.55 413.597C1430.09 413.932 1430.01 414.811 1430.37 415.56C1430.73 416.31 1431.39 416.646 1431.84 416.311Z" fill="white"/>
<path d="M1278.4 70.9462C1278.86 70.6116 1278.94 69.7327 1278.58 68.9832C1278.22 68.2336 1277.56 67.8972 1277.11 68.2318C1276.65 68.5664 1276.57 69.4452 1276.93 70.1948C1277.29 70.9444 1277.95 71.2807 1278.4 70.9462Z" fill="white"/>
<path d="M1375.41 274.529C1375.87 274.195 1375.95 273.316 1375.59 272.566C1375.23 271.817 1374.57 271.48 1374.12 271.815C1373.66 272.149 1373.58 273.028 1373.94 273.778C1374.3 274.527 1374.96 274.864 1375.41 274.529Z" fill="white"/>
<path d="M1186.25 17.7185C1186.71 17.3839 1186.79 16.5051 1186.43 15.7555C1186.07 15.0059 1185.41 14.6694 1184.96 15.0039C1184.5 15.3385 1184.42 16.2173 1184.78 16.9669C1185.14 17.7165 1185.8 18.053 1186.25 17.7185Z" fill="white"/>
<path d="M1283.26 221.301C1283.72 220.967 1283.8 220.088 1283.44 219.338C1283.08 218.589 1282.42 218.252 1281.97 218.587C1281.51 218.921 1281.43 219.8 1281.79 220.55C1282.15 221.299 1282.81 221.636 1283.26 221.301Z" fill="white"/>
<path d="M1380.27 424.88C1380.73 424.546 1380.81 423.667 1380.45 422.917C1380.09 422.168 1379.43 421.831 1378.98 422.166C1378.52 422.5 1378.44 423.379 1378.8 424.129C1379.16 424.879 1379.82 425.215 1380.27 424.88Z" fill="white"/>
<path d="M1339.84 106.433C1340.29 106.098 1340.37 105.219 1340.01 104.47C1339.66 103.72 1339 103.384 1338.54 103.718C1338.09 104.053 1338.01 104.932 1338.36 105.681C1338.72 106.431 1339.38 106.767 1339.84 106.433Z" fill="white"/>
<path d="M1436.84 310.012C1437.3 309.677 1437.38 308.798 1437.02 308.049C1436.66 307.299 1436.01 306.963 1435.55 307.297C1435.1 307.632 1435.02 308.511 1435.37 309.26C1435.73 310.01 1436.39 310.346 1436.84 310.012Z" fill="white"/>
<path d="M1258.02 100.583C1258.93 99.914 1259.09 98.1563 1258.37 96.6572C1257.66 95.158 1256.34 94.4852 1255.43 95.1543C1254.52 95.8235 1254.36 97.5812 1255.08 99.0803C1255.79 100.579 1257.11 101.252 1258.02 100.583Z" fill="white"/>
<path d="M1268.97 35.7318C1269.88 35.0626 1270.04 33.3049 1269.32 31.8058C1268.61 30.3067 1267.29 29.6339 1266.38 30.303C1265.47 30.9722 1265.31 32.7299 1266.02 34.229C1266.74 35.7281 1268.06 36.4009 1268.97 35.7318Z" fill="white"/>
<path d="M74.9888 630.016C75.8995 629.347 77.2169 630.02 77.9312 631.519C78.6456 633.018 78.4865 634.776 77.5759 635.445C76.6652 636.115 75.3478 635.442 74.6335 633.942C73.9191 632.443 74.0782 630.686 74.9888 630.016Z" fill="white"/>
<path d="M322.173 704.923C323.083 704.254 324.401 704.927 325.115 706.426C325.83 707.925 325.671 709.683 324.76 710.352C323.849 711.022 322.532 710.349 321.818 708.849C321.103 707.35 321.262 705.592 322.173 704.923Z" fill="white"/>
<path d="M136.396 291.703C137.307 291.034 138.624 291.707 139.338 293.206C140.053 294.705 139.894 296.463 138.983 297.132C138.072 297.801 136.755 297.128 136.041 295.629C135.326 294.13 135.485 292.372 136.396 291.703Z" fill="white"/>
<path d="M420.573 425.554C421.484 424.885 422.801 425.558 423.516 427.057C424.23 428.556 424.071 430.314 423.16 430.983C422.25 431.652 420.932 430.979 420.218 429.48C419.504 427.981 419.663 426.223 420.573 425.554Z" fill="white"/>
<path d="M734.925 702.152C735.836 701.482 737.153 702.155 737.867 703.654C738.582 705.154 738.423 706.911 737.512 707.581C736.602 708.25 735.284 707.577 734.57 706.078C733.855 704.578 734.015 702.821 734.925 702.152Z" fill="white"/>
<path d="M549.148 288.927C550.059 288.258 551.376 288.931 552.091 290.43C552.805 291.929 552.646 293.687 551.735 294.356C550.825 295.025 549.507 294.353 548.793 292.853C548.079 291.354 548.238 289.597 549.148 288.927Z" fill="white"/>
<path d="M864.141 473.433C865.052 472.764 866.369 473.437 867.084 474.936C867.798 476.435 867.639 478.193 866.728 478.862C865.818 479.531 864.5 478.858 863.786 477.359C863.072 475.86 863.231 474.102 864.141 473.433Z" fill="white"/>
<path d="M678.365 60.2122C679.275 59.5431 680.593 60.216 681.307 61.7152C682.021 63.2143 681.862 64.972 680.952 65.6411C680.041 66.3103 678.724 65.6374 678.009 64.1383C677.295 62.6392 677.454 60.8814 678.365 60.2122Z" fill="white"/>
<path d="M1192.93 678.954C1193.39 678.62 1194.05 678.956 1194.4 679.706C1194.76 680.455 1194.68 681.334 1194.22 681.669C1193.77 682.003 1193.11 681.667 1192.75 680.917C1192.4 680.168 1192.48 679.289 1192.93 678.954Z" fill="white"/>
<path d="M1095.92 475.37C1096.37 475.035 1097.03 475.371 1097.39 476.121C1097.75 476.87 1097.67 477.749 1097.21 478.084C1096.76 478.418 1096.1 478.082 1095.74 477.332C1095.38 476.583 1095.46 475.704 1095.92 475.37Z" fill="white"/>
<path d="M998.911 271.792C999.366 271.457 1000.03 271.794 1000.38 272.543C1000.74 273.293 1000.66 274.172 1000.2 274.506C999.75 274.841 999.091 274.504 998.734 273.755C998.376 273.005 998.456 272.126 998.911 271.792Z" fill="white"/>
<path d="M901.899 68.2067C902.354 67.8722 903.013 68.2086 903.37 68.9582C903.727 69.7078 903.648 70.5866 903.193 70.9212C902.737 71.2558 902.079 70.9193 901.721 70.1697C901.364 69.4201 901.444 68.5413 901.899 68.2067Z" fill="white"/>
<path d="M1265.85 808.619C1266.31 808.284 1266.96 808.621 1267.32 809.37C1267.68 810.12 1267.6 810.999 1267.14 811.333C1266.69 811.668 1266.03 811.331 1265.67 810.582C1265.32 809.832 1265.4 808.953 1265.85 808.619Z" fill="white"/>
<path d="M1168.84 605.03C1169.29 604.695 1169.95 605.032 1170.31 605.781C1170.66 606.531 1170.59 607.41 1170.13 607.744C1169.67 608.079 1169.02 607.742 1168.66 606.993C1168.3 606.243 1168.38 605.364 1168.84 605.03Z" fill="white"/>
<path d="M1071.83 401.453C1072.28 401.118 1072.94 401.455 1073.3 402.204C1073.66 402.954 1073.58 403.833 1073.12 404.167C1072.67 404.502 1072.01 404.165 1071.65 403.416C1071.29 402.666 1071.37 401.787 1071.83 401.453Z" fill="white"/>
<path d="M974.82 197.873C975.275 197.538 975.933 197.875 976.291 198.625C976.648 199.374 976.568 200.253 976.113 200.588C975.658 200.922 974.999 200.586 974.642 199.836C974.285 199.086 974.364 198.208 974.82 197.873Z" fill="white"/>
<path d="M1162.06 730.958C1162.51 730.624 1163.17 730.96 1163.53 731.71C1163.89 732.46 1163.81 733.338 1163.35 733.673C1162.9 734.007 1162.24 733.671 1161.88 732.921C1161.52 732.172 1161.6 731.293 1162.06 730.958Z" fill="white"/>
<path d="M1065.05 527.379C1065.5 527.045 1066.16 527.381 1066.52 528.131C1066.88 528.88 1066.8 529.759 1066.34 530.094C1065.89 530.428 1065.23 530.092 1064.87 529.342C1064.51 528.593 1064.59 527.714 1065.05 527.379Z" fill="white"/>
<path d="M968.038 323.796C968.494 323.461 969.152 323.798 969.509 324.548C969.866 325.297 969.787 326.176 969.332 326.51C968.876 326.845 968.218 326.509 967.861 325.759C967.503 325.009 967.583 324.13 968.038 323.796Z" fill="white"/>
<path d="M871.025 120.211C871.48 119.877 872.139 120.213 872.496 120.963C872.853 121.712 872.774 122.591 872.318 122.926C871.863 123.26 871.204 122.924 870.847 122.174C870.49 121.425 870.57 120.546 871.025 120.211Z" fill="white"/>
<path d="M1270.37 724.668C1270.83 724.333 1271.49 724.67 1271.84 725.419C1272.2 726.169 1272.12 727.048 1271.67 727.382C1271.21 727.717 1270.55 727.38 1270.19 726.631C1269.84 725.881 1269.92 725.002 1270.37 724.668Z" fill="white"/>
<path d="M1173.36 521.088C1173.82 520.753 1174.48 521.09 1174.83 521.84C1175.19 522.589 1175.11 523.468 1174.65 523.803C1174.2 524.137 1173.54 523.801 1173.18 523.051C1172.83 522.302 1172.91 521.423 1173.36 521.088Z" fill="white"/>
<path d="M1076.35 317.5C1076.8 317.165 1077.46 317.501 1077.82 318.251C1078.18 319.001 1078.1 319.879 1077.64 320.214C1077.19 320.549 1076.53 320.212 1076.17 319.463C1075.81 318.713 1075.89 317.834 1076.35 317.5Z" fill="white"/>
<path d="M979.341 113.922C979.796 113.588 980.454 113.924 980.812 114.674C981.169 115.423 981.089 116.302 980.634 116.637C980.179 116.971 979.52 116.635 979.163 115.885C978.806 115.136 978.885 114.257 979.341 113.922Z" fill="white"/>
<path d="M1235.12 816.534C1236.03 815.865 1237.35 816.538 1238.06 818.037C1238.77 819.536 1238.62 821.294 1237.7 821.963C1236.79 822.632 1235.48 821.96 1234.76 820.46C1234.05 818.961 1234.21 817.204 1235.12 816.534Z" fill="white"/>
<path d="M1032.85 415.436C1033.77 414.767 1035.08 415.44 1035.8 416.939C1036.51 418.438 1036.35 420.196 1035.44 420.865C1034.53 421.534 1033.21 420.861 1032.5 419.362C1031.79 417.863 1031.94 416.105 1032.85 415.436Z" fill="white"/>
<path d="M1083.9 434.728C1084.81 434.059 1086.13 434.731 1086.84 436.231C1087.56 437.73 1087.4 439.488 1086.49 440.157C1085.58 440.826 1084.26 440.153 1083.54 438.654C1082.83 437.155 1082.99 435.397 1083.9 434.728Z" fill="white"/>
<path d="M898.124 21.5075C899.035 20.8384 900.352 21.5111 901.067 23.0102C901.781 24.5093 901.622 26.2671 900.711 26.9363C899.801 27.6054 898.483 26.9326 897.769 25.4335C897.054 23.9344 897.214 22.1767 898.124 21.5075Z" fill="white"/>
<path d="M1022 111.888C1022.46 111.553 1022.54 110.674 1022.18 109.925C1021.82 109.175 1021.17 108.839 1020.71 109.173C1020.25 109.508 1020.17 110.387 1020.53 111.136C1020.89 111.886 1021.55 112.222 1022 111.888Z" fill="white"/>
<path d="M1119.01 315.467C1119.47 315.133 1119.55 314.254 1119.19 313.504C1118.83 312.755 1118.17 312.418 1117.72 312.753C1117.26 313.088 1117.18 313.966 1117.54 314.716C1117.9 315.466 1118.56 315.802 1119.01 315.467Z" fill="white"/>
<path d="M1216.02 519.05C1216.48 518.716 1216.56 517.837 1216.2 517.087C1215.84 516.338 1215.18 516.001 1214.73 516.336C1214.27 516.67 1214.19 517.549 1214.55 518.299C1214.91 519.048 1215.57 519.385 1216.02 519.05Z" fill="white"/>
<path d="M1313.03 722.635C1313.49 722.3 1313.57 721.422 1313.21 720.672C1312.85 719.923 1312.2 719.586 1311.74 719.921C1311.29 720.255 1311.21 721.134 1311.56 721.884C1311.92 722.633 1312.58 722.969 1313.03 722.635Z" fill="white"/>
<path d="M1062.58 173.69C1063.04 173.356 1063.12 172.477 1062.76 171.727C1062.41 170.977 1061.75 170.641 1061.29 170.976C1060.84 171.31 1060.76 172.189 1061.11 172.939C1061.47 173.688 1062.13 174.025 1062.58 173.69Z" fill="white"/>
<path d="M1159.6 377.273C1160.05 376.939 1160.13 376.06 1159.77 375.31C1159.42 374.561 1158.76 374.224 1158.3 374.559C1157.85 374.893 1157.77 375.772 1158.12 376.522C1158.48 377.271 1159.14 377.608 1159.6 377.273Z" fill="white"/>
<path d="M1256.61 580.858C1257.06 580.524 1257.14 579.645 1256.79 578.895C1256.43 578.146 1255.77 577.809 1255.31 578.144C1254.86 578.478 1254.78 579.357 1255.14 580.107C1255.49 580.856 1256.15 581.193 1256.61 580.858Z" fill="white"/>
<path d="M1353.62 784.441C1354.07 784.106 1354.15 783.227 1353.8 782.478C1353.44 781.728 1352.78 781.392 1352.33 781.726C1351.87 782.061 1351.79 782.94 1352.15 783.69C1352.5 784.439 1353.16 784.775 1353.62 784.441Z" fill="white"/>
<path d="M1124.02 209.177C1124.47 208.843 1124.55 207.964 1124.2 207.214C1123.84 206.465 1123.18 206.128 1122.72 206.463C1122.27 206.797 1122.19 207.676 1122.55 208.426C1122.9 209.175 1123.56 209.512 1124.02 209.177Z" fill="white"/>
<path d="M1221.03 412.762C1221.48 412.428 1221.56 411.549 1221.21 410.799C1220.85 410.05 1220.19 409.713 1219.74 410.048C1219.28 410.383 1219.2 411.261 1219.56 412.011C1219.92 412.76 1220.57 413.097 1221.03 412.762Z" fill="white"/>
<path d="M1318.04 616.339C1318.49 616.005 1318.57 615.126 1318.22 614.376C1317.86 613.627 1317.2 613.29 1316.74 613.625C1316.29 613.96 1316.21 614.838 1316.57 615.588C1316.92 616.338 1317.58 616.674 1318.04 616.339Z" fill="white"/>
<path d="M1137.98 394.985C1138.89 394.315 1139.05 392.558 1138.34 391.058C1137.62 389.559 1136.31 388.886 1135.39 389.556C1134.48 390.225 1134.32 391.983 1135.04 393.482C1135.75 394.981 1137.07 395.654 1137.98 394.985Z" fill="white"/>
<path d="M1323.76 808.21C1324.67 807.541 1324.83 805.783 1324.11 804.284C1323.4 802.785 1322.08 802.112 1321.17 802.781C1320.26 803.45 1320.1 805.208 1320.82 806.707C1321.53 808.206 1322.85 808.879 1323.76 808.21Z" fill="white"/>
<path d="M1106.98 111.751C1107.43 111.416 1107.51 110.537 1107.16 109.788C1106.8 109.038 1106.14 108.702 1105.68 109.036C1105.23 109.371 1105.15 110.25 1105.51 110.999C1105.86 111.749 1106.52 112.085 1106.98 111.751Z" fill="white"/>
<path d="M1203.99 315.334C1204.44 314.999 1204.52 314.121 1204.17 313.371C1203.81 312.621 1203.15 312.285 1202.7 312.62C1202.24 312.954 1202.16 313.833 1202.52 314.583C1202.87 315.332 1203.53 315.669 1203.99 315.334Z" fill="white"/>
<path d="M1301 518.918C1301.46 518.584 1301.54 517.705 1301.18 516.956C1300.82 516.206 1300.16 515.87 1299.71 516.204C1299.25 516.539 1299.17 517.418 1299.53 518.167C1299.89 518.917 1300.55 519.253 1301 518.918Z" fill="white"/>
<path d="M1398.01 722.502C1398.47 722.167 1398.55 721.289 1398.19 720.539C1397.83 719.789 1397.17 719.453 1396.72 719.787C1396.26 720.122 1396.18 721.001 1396.54 721.75C1396.9 722.5 1397.56 722.837 1398.01 722.502Z" fill="white"/>
<path d="M1147.56 173.553C1148.01 173.219 1148.09 172.34 1147.74 171.59C1147.38 170.841 1146.72 170.504 1146.27 170.839C1145.81 171.173 1145.73 172.052 1146.09 172.802C1146.45 173.551 1147.1 173.888 1147.56 173.553Z" fill="white"/>
<path d="M1244.57 377.136C1245.03 376.802 1245.11 375.923 1244.75 375.173C1244.39 374.424 1243.73 374.087 1243.28 374.422C1242.82 374.756 1242.74 375.635 1243.1 376.385C1243.46 377.134 1244.12 377.471 1244.57 377.136Z" fill="white"/>
<path d="M1341.58 580.719C1342.04 580.385 1342.12 579.506 1341.76 578.756C1341.4 578.007 1340.74 577.67 1340.29 578.005C1339.83 578.339 1339.75 579.218 1340.11 579.968C1340.47 580.717 1341.13 581.054 1341.58 580.719Z" fill="white"/>
<path d="M1055.41 120.326C1055.87 119.991 1055.94 119.112 1055.59 118.363C1055.23 117.613 1054.57 117.276 1054.12 117.611C1053.66 117.945 1053.58 118.824 1053.94 119.574C1054.3 120.324 1054.95 120.66 1055.41 120.326Z" fill="white"/>
<path d="M1152.42 323.908C1152.88 323.574 1152.96 322.695 1152.6 321.945C1152.24 321.196 1151.58 320.859 1151.13 321.194C1150.67 321.528 1150.59 322.407 1150.95 323.157C1151.31 323.906 1151.97 324.243 1152.42 323.908Z" fill="white"/>
<path d="M1249.43 527.487C1249.89 527.153 1249.96 526.274 1249.61 525.525C1249.25 524.775 1248.59 524.438 1248.14 524.773C1247.68 525.108 1247.6 525.986 1247.96 526.736C1248.32 527.485 1248.97 527.822 1249.43 527.487Z" fill="white"/>
<path d="M1346.44 731.071C1346.9 730.736 1346.98 729.857 1346.62 729.108C1346.26 728.358 1345.6 728.022 1345.15 728.356C1344.69 728.691 1344.61 729.57 1344.97 730.319C1345.33 731.069 1345.99 731.405 1346.44 731.071Z" fill="white"/>
<path d="M1208.99 209.04C1209.45 208.705 1209.53 207.826 1209.17 207.077C1208.81 206.327 1208.16 205.991 1207.7 206.325C1207.25 206.66 1207.17 207.538 1207.52 208.288C1207.88 209.038 1208.54 209.374 1208.99 209.04Z" fill="white"/>
<path d="M1306 412.619C1306.46 412.284 1306.54 411.405 1306.18 410.656C1305.82 409.906 1305.17 409.57 1304.71 409.904C1304.26 410.239 1304.18 411.118 1304.53 411.867C1304.89 412.617 1305.55 412.953 1306 412.619Z" fill="white"/>
<path d="M1403.01 616.202C1403.47 615.867 1403.55 614.988 1403.19 614.239C1402.83 613.489 1402.18 613.153 1401.72 613.487C1401.26 613.822 1401.19 614.701 1401.54 615.451C1401.9 616.2 1402.56 616.536 1403.01 616.202Z" fill="white"/>
<path d="M1127.18 203.19C1128.09 202.521 1128.25 200.763 1127.53 199.264C1126.82 197.765 1125.5 197.092 1124.59 197.761C1123.68 198.43 1123.52 200.188 1124.23 201.687C1124.95 203.186 1126.27 203.859 1127.18 203.19Z" fill="white"/>
<path d="M1312.95 616.41C1313.86 615.741 1314.02 613.983 1313.31 612.484C1312.59 610.985 1311.28 610.312 1310.37 610.982C1309.45 611.651 1309.3 613.408 1310.01 614.907C1310.72 616.407 1312.04 617.079 1312.95 616.41Z" fill="white"/>
<path d="M1138.13 138.339C1139.04 137.669 1139.2 135.912 1138.48 134.413C1137.77 132.914 1136.45 132.241 1135.54 132.91C1134.63 133.579 1134.47 135.337 1135.18 136.836C1135.9 138.335 1137.22 139.008 1138.13 138.339Z" fill="white"/>
<path d="M1323.9 551.563C1324.81 550.894 1324.97 549.136 1324.26 547.637C1323.54 546.138 1322.23 545.465 1321.32 546.134C1320.41 546.803 1320.25 548.561 1320.96 550.06C1321.68 551.56 1322.99 552.232 1323.9 551.563Z" fill="white"/>
<path d="M191.332 807.53C192.242 806.861 193.559 807.534 194.274 809.033C194.988 810.533 194.829 812.29 193.919 812.96C193.008 813.629 191.691 812.956 190.976 811.456C190.262 809.957 190.421 808.199 191.332 807.53Z" fill="white"/>
<path d="M5.55473 394.31C6.46534 393.641 7.7826 394.314 8.49698 395.813C9.21137 397.312 9.05235 399.07 8.14173 399.739C7.23111 400.408 5.91373 399.736 5.19934 398.236C4.48495 396.737 4.64411 394.979 5.55473 394.31Z" fill="white"/>
<path d="M289.733 528.161C290.644 527.492 291.961 528.165 292.676 529.664C293.39 531.163 293.231 532.921 292.32 533.59C291.41 534.259 290.092 533.586 289.378 532.087C288.664 530.588 288.823 528.83 289.733 528.161Z" fill="white"/>
<path d="M103.954 114.937C104.865 114.268 106.182 114.941 106.897 116.44C107.611 117.939 107.452 119.696 106.541 120.366C105.631 121.035 104.313 120.362 103.599 118.863C102.884 117.364 103.044 115.606 103.954 114.937Z" fill="white"/>
<path d="M604.086 804.758C604.997 804.089 606.314 804.762 607.028 806.261C607.743 807.761 607.584 809.518 606.673 810.188C605.762 810.857 604.445 810.184 603.731 808.685C603.016 807.185 603.175 805.428 604.086 804.758Z" fill="white"/>
<path d="M418.307 391.534C419.218 390.865 420.535 391.538 421.249 393.037C421.964 394.536 421.805 396.294 420.894 396.963C419.984 397.632 418.666 396.959 417.952 395.46C417.237 393.961 417.397 392.203 418.307 391.534Z" fill="white"/>
<path d="M733.3 576.04C734.211 575.371 735.528 576.044 736.242 577.543C736.957 579.042 736.798 580.8 735.887 581.469C734.976 582.138 733.659 581.465 732.945 579.966C732.23 578.467 732.389 576.709 733.3 576.04Z" fill="white"/>
<path d="M547.524 162.82C548.435 162.15 549.753 162.823 550.467 164.322C551.181 165.822 551.022 167.579 550.111 168.248C549.201 168.917 547.884 168.245 547.169 166.746C546.455 165.246 546.614 163.489 547.524 162.82Z" fill="white"/>
<path d="M1062.09 781.561C1062.55 781.227 1063.2 781.563 1063.56 782.313C1063.92 783.062 1063.84 783.941 1063.38 784.276C1062.93 784.61 1062.27 784.274 1061.91 783.524C1061.56 782.775 1061.64 781.896 1062.09 781.561Z" fill="white"/>
<path d="M965.079 577.977C965.534 577.642 966.193 577.979 966.55 578.728C966.907 579.478 966.828 580.356 966.372 580.691C965.917 581.025 965.259 580.689 964.901 579.94C964.544 579.19 964.624 578.311 965.079 577.977Z" fill="white"/>
<path d="M868.07 374.399C868.525 374.064 869.184 374.401 869.541 375.15C869.898 375.9 869.819 376.779 869.363 377.114C868.908 377.448 868.25 377.112 867.892 376.362C867.535 375.612 867.615 374.733 868.07 374.399Z" fill="white"/>
<path d="M771.059 170.814C771.514 170.479 772.173 170.816 772.53 171.565C772.887 172.315 772.808 173.194 772.352 173.529C771.897 173.863 771.238 173.527 770.881 172.777C770.524 172.027 770.604 171.149 771.059 170.814Z" fill="white"/>
<path d="M1038 707.637C1038.45 707.302 1039.11 707.639 1039.47 708.388C1039.82 709.138 1039.74 710.017 1039.29 710.351C1038.83 710.686 1038.18 710.349 1037.82 709.6C1037.46 708.85 1037.54 707.971 1038 707.637Z" fill="white"/>
<path d="M940.987 504.06C941.443 503.725 942.101 504.062 942.458 504.811C942.816 505.561 942.736 506.44 942.281 506.774C941.825 507.109 941.167 506.772 940.809 506.023C940.452 505.273 940.532 504.394 940.987 504.06Z" fill="white"/>
<path d="M843.978 300.48C844.433 300.146 845.092 300.482 845.449 301.232C845.806 301.981 845.727 302.86 845.272 303.195C844.816 303.529 844.158 303.193 843.801 302.443C843.443 301.694 843.523 300.815 843.978 300.48Z" fill="white"/>
<path d="M746.964 96.8919C747.419 96.5573 748.078 96.8938 748.435 97.6434C748.792 98.3929 748.713 99.2717 748.257 99.6063C747.802 99.9408 747.143 99.6045 746.786 98.8549C746.429 98.1053 746.509 97.2265 746.964 96.8919Z" fill="white"/>
<path d="M934.209 629.986C934.664 629.652 935.323 629.988 935.68 630.738C936.037 631.487 935.958 632.366 935.503 632.701C935.047 633.035 934.389 632.699 934.031 631.949C933.674 631.2 933.754 630.321 934.209 629.986Z" fill="white"/>
<path d="M837.197 426.403C837.652 426.069 838.311 426.405 838.668 427.155C839.025 427.904 838.946 428.783 838.49 429.118C838.035 429.452 837.376 429.116 837.019 428.366C836.662 427.616 836.741 426.738 837.197 426.403Z" fill="white"/>
<path d="M740.186 222.818C740.641 222.484 741.3 222.82 741.657 223.57C742.014 224.319 741.934 225.198 741.479 225.532C741.024 225.867 740.365 225.531 740.008 224.781C739.651 224.031 739.73 223.153 740.186 222.818Z" fill="white"/>
<path d="M643.177 19.2406C643.632 18.9061 644.291 19.2425 644.648 19.9921C645.005 20.7416 644.926 21.6205 644.471 21.955C644.015 22.2895 643.357 21.953 642.999 21.2035C642.642 20.4539 642.722 19.5752 643.177 19.2406Z" fill="white"/>
<path d="M1042.52 623.695C1042.98 623.361 1043.63 623.697 1043.99 624.447C1044.35 625.196 1044.27 626.075 1043.81 626.41C1043.36 626.744 1042.7 626.408 1042.34 625.658C1041.99 624.909 1042.07 624.03 1042.52 623.695Z" fill="white"/>
<path d="M945.508 420.107C945.964 419.772 946.622 420.109 946.979 420.858C947.337 421.608 947.257 422.487 946.802 422.821C946.346 423.156 945.688 422.819 945.33 422.07C944.973 421.32 945.053 420.441 945.508 420.107Z" fill="white"/>
<path d="M848.499 216.529C848.954 216.195 849.613 216.531 849.97 217.281C850.327 218.031 850.248 218.909 849.793 219.244C849.337 219.578 848.679 219.242 848.322 218.492C847.964 217.743 848.044 216.864 848.499 216.529Z" fill="white"/>
<path d="M751.486 12.9445C751.941 12.6099 752.6 12.9463 752.957 13.6959C753.314 14.4454 753.235 15.3243 752.779 15.6589C752.324 15.9934 751.666 15.657 751.308 14.9075C750.951 14.1579 751.031 13.2791 751.486 12.9445Z" fill="white"/>
<path d="M751.486 12.9445C751.941 12.6099 752.6 12.9463 752.957 13.6959C753.314 14.4454 753.235 15.3243 752.779 15.6589C752.324 15.9934 751.666 15.657 751.308 14.9075C750.951 14.1579 751.031 13.2791 751.486 12.9445Z" fill="white"/>
<path d="M902.014 518.043C902.924 517.374 904.242 518.047 904.956 519.546C905.67 521.045 905.511 522.803 904.6 523.472C903.69 524.141 902.373 523.468 901.658 521.969C900.944 520.47 901.103 518.712 902.014 518.043Z" fill="white"/>
<path d="M716.236 104.817C717.146 104.148 718.464 104.82 719.178 106.32C719.892 107.819 719.733 109.576 718.823 110.246C717.912 110.915 716.595 110.242 715.88 108.743C715.166 107.244 715.325 105.486 716.236 104.817Z" fill="white"/>
<path d="M953.061 537.335C953.971 536.666 955.289 537.338 956.003 538.838C956.718 540.337 956.558 542.095 955.648 542.764C954.737 543.433 953.42 542.76 952.705 541.261C951.991 539.762 952.15 538.004 953.061 537.335Z" fill="white"/>
<path d="M767.283 124.114C768.194 123.445 769.511 124.118 770.225 125.617C770.94 127.116 770.781 128.874 769.87 129.543C768.959 130.212 767.642 129.54 766.928 128.04C766.213 126.541 766.372 124.784 767.283 124.114Z" fill="white"/>
<path d="M891.162 214.495C891.617 214.16 891.697 213.282 891.34 212.532C890.982 211.782 890.324 211.446 889.868 211.781C889.413 212.115 889.334 212.994 889.691 213.744C890.048 214.493 890.707 214.83 891.162 214.495Z" fill="white"/>
<path d="M988.172 418.074C988.627 417.74 988.707 416.861 988.35 416.111C987.992 415.362 987.334 415.025 986.878 415.36C986.423 415.694 986.344 416.573 986.701 417.323C987.058 418.072 987.717 418.409 988.172 418.074Z" fill="white"/>
<path d="M1085.18 621.657C1085.64 621.323 1085.72 620.444 1085.36 619.694C1085 618.945 1084.34 618.608 1083.89 618.943C1083.43 619.277 1083.35 620.156 1083.71 620.906C1084.07 621.656 1084.73 621.992 1085.18 621.657Z" fill="white"/>
<path d="M1182.19 819.876C1182.65 819.542 1182.73 818.663 1182.37 817.913C1182.02 817.164 1181.36 816.827 1180.9 817.162C1180.45 817.496 1180.37 818.375 1180.72 819.125C1181.08 819.874 1181.74 820.211 1182.19 819.876Z" fill="white"/>
<path d="M834.733 72.7176C835.189 72.383 835.268 71.5041 834.911 70.7545C834.554 70.0049 833.895 69.6685 833.44 70.0031C832.985 70.3377 832.905 71.2166 833.262 71.9662C833.619 72.7158 834.278 73.0522 834.733 72.7176Z" fill="white"/>
<path d="M931.743 276.297C932.199 275.963 932.278 275.084 931.921 274.334C931.564 273.585 930.905 273.248 930.45 273.583C929.995 273.917 929.915 274.796 930.272 275.546C930.629 276.295 931.288 276.632 931.743 276.297Z" fill="white"/>
<path d="M1028.76 479.88C1029.21 479.546 1029.29 478.667 1028.93 477.917C1028.58 477.168 1027.92 476.831 1027.46 477.166C1027.01 477.501 1026.93 478.379 1027.28 479.129C1027.64 479.879 1028.3 480.215 1028.76 479.88Z" fill="white"/>
<path d="M1125.77 683.465C1126.22 683.13 1126.3 682.251 1125.94 681.502C1125.59 680.752 1124.93 680.416 1124.47 680.751C1124.02 681.085 1123.94 681.964 1124.3 682.714C1124.65 683.463 1125.31 683.799 1125.77 683.465Z" fill="white"/>
<path d="M896.167 108.201C896.622 107.866 896.702 106.988 896.345 106.238C895.987 105.488 895.329 105.152 894.873 105.487C894.418 105.821 894.339 106.7 894.696 107.45C895.053 108.199 895.712 108.536 896.167 108.201Z" fill="white"/>
<path d="M993.177 311.784C993.632 311.45 993.712 310.571 993.355 309.821C992.998 309.072 992.339 308.735 991.883 309.07C991.428 309.404 991.348 310.283 991.706 311.033C992.063 311.782 992.722 312.119 993.177 311.784Z" fill="white"/>
<path d="M1090.19 515.369C1090.65 515.034 1090.73 514.156 1090.37 513.406C1090.01 512.657 1089.35 512.32 1088.9 512.655C1088.44 512.989 1088.36 513.868 1088.72 514.618C1089.08 515.367 1089.73 515.704 1090.19 515.369Z" fill="white"/>
<path d="M1187.2 718.946C1187.65 718.612 1187.73 717.733 1187.38 716.983C1187.02 716.234 1186.36 715.897 1185.91 716.232C1185.45 716.566 1185.37 717.445 1185.73 718.195C1186.09 718.945 1186.74 719.281 1187.2 718.946Z" fill="white"/>
<path d="M821.364 84.3711C822.275 83.702 822.434 81.9443 821.72 80.4451C821.005 78.946 819.688 78.2731 818.777 78.9422C817.867 79.6113 817.708 81.3691 818.422 82.8682C819.137 84.3673 820.454 85.0402 821.364 84.3711Z" fill="white"/>
<path d="M1007.14 497.591C1008.05 496.922 1008.21 495.164 1007.5 493.665C1006.78 492.166 1005.46 491.493 1004.55 492.163C1003.64 492.832 1003.48 494.589 1004.2 496.089C1004.91 497.588 1006.23 498.261 1007.14 497.591Z" fill="white"/>
<path d="M976.138 214.358C976.593 214.023 976.672 213.144 976.315 212.395C975.958 211.645 975.299 211.309 974.844 211.643C974.389 211.978 974.309 212.857 974.667 213.606C975.024 214.356 975.682 214.693 976.138 214.358Z" fill="white"/>
<path d="M1073.15 417.941C1073.6 417.606 1073.68 416.728 1073.33 415.978C1072.97 415.228 1072.31 414.892 1071.85 415.227C1071.4 415.561 1071.32 416.44 1071.68 417.19C1072.03 417.939 1072.69 418.276 1073.15 417.941Z" fill="white"/>
<path d="M1170.16 621.525C1170.62 621.191 1170.7 620.312 1170.34 619.563C1169.98 618.813 1169.32 618.477 1168.87 618.811C1168.41 619.146 1168.33 620.025 1168.69 620.774C1169.05 621.524 1169.71 621.86 1170.16 621.525Z" fill="white"/>
<path d="M1281.22 821.085C1281.67 820.75 1281.75 819.871 1281.39 819.121C1281.04 818.372 1280.38 818.035 1279.92 818.37C1279.47 818.704 1279.39 819.583 1279.75 820.333C1280.1 821.083 1280.76 821.419 1281.22 821.085Z" fill="white"/>
<path d="M919.71 72.5808C920.165 72.2463 920.245 71.3674 919.888 70.6178C919.531 69.8683 918.872 69.532 918.417 69.8665C917.961 70.2011 917.882 71.0799 918.239 71.8295C918.596 72.579 919.255 72.9154 919.71 72.5808Z" fill="white"/>
<path d="M1016.72 276.16C1017.17 275.826 1017.25 274.947 1016.9 274.197C1016.54 273.448 1015.88 273.111 1015.42 273.446C1014.97 273.78 1014.89 274.659 1015.25 275.409C1015.6 276.158 1016.26 276.495 1016.72 276.16Z" fill="white"/>
<path d="M1113.73 479.743C1114.19 479.409 1114.27 478.53 1113.91 477.78C1113.55 477.031 1112.89 476.694 1112.44 477.029C1111.98 477.364 1111.9 478.242 1112.26 478.992C1112.62 479.742 1113.27 480.078 1113.73 479.743Z" fill="white"/>
<path d="M1210.74 683.326C1211.2 682.991 1211.28 682.113 1210.92 681.363C1210.56 680.614 1209.9 680.277 1209.45 680.612C1208.99 680.946 1208.91 681.825 1209.27 682.575C1209.63 683.324 1210.29 683.661 1210.74 683.326Z" fill="white"/>
<path d="M827.558 19.3491C828.013 19.0146 828.092 18.1358 827.735 17.3862C827.378 16.6366 826.719 16.3001 826.264 16.6347C825.809 16.9692 825.729 17.848 826.086 18.5976C826.444 19.3471 827.102 19.6836 827.558 19.3491Z" fill="white"/>
<path d="M924.57 222.932C925.025 222.598 925.104 221.719 924.747 220.969C924.39 220.22 923.731 219.883 923.276 220.218C922.821 220.552 922.741 221.431 923.098 222.181C923.456 222.93 924.114 223.267 924.57 222.932Z" fill="white"/>
<path d="M1021.58 426.515C1022.04 426.181 1022.12 425.302 1021.76 424.552C1021.4 423.803 1020.74 423.466 1020.29 423.801C1019.83 424.135 1019.75 425.014 1020.11 425.764C1020.47 426.513 1021.13 426.85 1021.58 426.515Z" fill="white"/>
<path d="M1118.59 630.094C1119.04 629.76 1119.12 628.881 1118.77 628.132C1118.41 627.382 1117.75 627.046 1117.3 627.38C1116.84 627.715 1116.76 628.593 1117.12 629.343C1117.48 630.093 1118.13 630.429 1118.59 630.094Z" fill="white"/>
<path d="M981.143 108.063C981.599 107.729 981.678 106.85 981.321 106.1C980.964 105.351 980.305 105.014 979.85 105.349C979.395 105.683 979.315 106.562 979.672 107.312C980.029 108.061 980.688 108.398 981.143 108.063Z" fill="white"/>
<path d="M1078.15 311.647C1078.61 311.312 1078.69 310.433 1078.33 309.684C1077.97 308.934 1077.32 308.598 1076.86 308.932C1076.41 309.267 1076.33 310.146 1076.68 310.895C1077.04 311.645 1077.7 311.981 1078.15 311.647Z" fill="white"/>
<path d="M1175.16 515.226C1175.62 514.891 1175.7 514.012 1175.34 513.263C1174.98 512.513 1174.33 512.177 1173.87 512.511C1173.41 512.846 1173.34 513.725 1173.69 514.474C1174.05 515.224 1174.71 515.561 1175.16 515.226Z" fill="white"/>
<path d="M1272.17 718.809C1272.63 718.474 1272.71 717.595 1272.35 716.846C1272 716.096 1271.34 715.76 1270.88 716.094C1270.43 716.429 1270.35 717.308 1270.7 718.057C1271.06 718.807 1271.72 719.143 1272.17 718.809Z" fill="white"/>
<path d="M996.336 305.797C997.246 305.128 997.405 303.371 996.691 301.871C995.977 300.372 994.659 299.699 993.749 300.368C992.838 301.038 992.679 302.795 993.393 304.294C994.108 305.794 995.425 306.467 996.336 305.797Z" fill="white"/>
<path d="M1182.11 719.017C1183.02 718.348 1183.18 716.591 1182.47 715.091C1181.75 713.592 1180.44 712.92 1179.53 713.589C1178.61 714.258 1178.46 716.015 1179.17 717.515C1179.88 719.014 1181.2 719.686 1182.11 719.017Z" fill="white"/>
<path d="M1007.29 240.946C1008.2 240.276 1008.36 238.519 1007.64 237.02C1006.93 235.52 1005.61 234.848 1004.7 235.517C1003.79 236.186 1003.63 237.944 1004.34 239.443C1005.06 240.942 1006.37 241.615 1007.29 240.946Z" fill="white"/>
<path d="M1193.06 654.17C1193.97 653.501 1194.13 651.743 1193.42 650.244C1192.7 648.745 1191.39 648.072 1190.48 648.741C1189.56 649.41 1189.41 651.168 1190.12 652.667C1190.83 654.167 1192.15 654.839 1193.06 654.17Z" fill="white"/>
<path d="M80.6024 587.018C81.513 586.348 82.8304 587.021 83.5448 588.52C84.2591 590.019 84.1 591.777 83.1894 592.446C82.2787 593.115 80.9613 592.443 80.247 590.944C79.5326 589.444 79.6917 587.687 80.6024 587.018Z" fill="white"/>
<path d="M209.179 450.391C210.089 449.722 211.406 450.394 212.121 451.894C212.835 453.393 212.676 455.15 211.766 455.82C210.855 456.489 209.537 455.816 208.823 454.317C208.109 452.818 208.268 451.06 209.179 450.391Z" fill="white"/>
<path d="M23.4008 37.1705C24.3114 36.5014 25.6287 37.1742 26.3431 38.6733C27.0574 40.1725 26.8983 41.9303 25.9877 42.5994C25.077 43.2685 23.7598 42.5957 23.0454 41.0966C22.3311 39.5974 22.4902 37.8396 23.4008 37.1705Z" fill="white"/>
<path d="M524.172 634.897C525.082 634.228 526.399 634.9 527.114 636.4C527.828 637.899 527.669 639.656 526.758 640.325C525.848 640.995 524.53 640.322 523.816 638.823C523.102 637.324 523.261 635.566 524.172 634.897Z" fill="white"/>
<path d="M338.394 221.676C339.304 221.007 340.622 221.68 341.336 223.179C342.05 224.678 341.891 226.436 340.981 227.105C340.07 227.774 338.753 227.101 338.038 225.602C337.324 224.103 337.483 222.345 338.394 221.676Z" fill="white"/>
<path d="M755.95 636.833C756.406 636.499 757.064 636.835 757.422 637.584C757.779 638.334 757.699 639.213 757.244 639.547C756.788 639.882 756.13 639.546 755.773 638.796C755.415 638.047 755.495 637.168 755.95 636.833Z" fill="white"/>
<path d="M658.941 433.255C659.396 432.921 660.055 433.257 660.412 434.007C660.769 434.757 660.69 435.635 660.235 435.97C659.779 436.305 659.121 435.968 658.763 435.218C658.406 434.469 658.486 433.59 658.941 433.255Z" fill="white"/>
<path d="M561.928 229.67C562.383 229.336 563.042 229.672 563.399 230.422C563.757 231.171 563.677 232.05 563.222 232.385C562.766 232.719 562.108 232.383 561.75 231.633C561.393 230.884 561.473 230.005 561.928 229.67Z" fill="white"/>
<path d="M464.918 26.0871C465.373 25.7526 466.032 26.0891 466.389 26.8387C466.746 27.5883 466.667 28.4671 466.212 28.8017C465.756 29.1362 465.098 28.7998 464.74 28.0502C464.383 27.3006 464.463 26.4217 464.918 26.0871Z" fill="white"/>
<path d="M464.918 26.0871C465.373 25.7526 466.032 26.0891 466.389 26.8387C466.746 27.5883 466.667 28.4671 466.212 28.8017C465.756 29.1362 465.098 28.7998 464.74 28.0502C464.383 27.3006 464.463 26.4217 464.918 26.0871Z" fill="white"/>
<path d="M828.866 766.494C829.322 766.159 829.98 766.496 830.337 767.245C830.695 767.995 830.615 768.874 830.16 769.208C829.705 769.543 829.046 769.206 828.689 768.457C828.332 767.707 828.411 766.828 828.866 766.494Z" fill="white"/>
<path d="M731.859 562.916C732.314 562.582 732.973 562.918 733.33 563.668C733.687 564.417 733.608 565.296 733.152 565.631C732.697 565.965 732.038 565.629 731.681 564.879C731.324 564.13 731.403 563.251 731.859 562.916Z" fill="white"/>
<path d="M634.849 359.337C635.304 359.002 635.962 359.339 636.32 360.088C636.677 360.838 636.597 361.717 636.142 362.051C635.687 362.386 635.028 362.05 634.671 361.3C634.314 360.55 634.393 359.671 634.849 359.337Z" fill="white"/>
<path d="M537.836 155.748C538.291 155.414 538.949 155.75 539.307 156.5C539.664 157.249 539.584 158.128 539.129 158.463C538.674 158.797 538.015 158.461 537.658 157.711C537.301 156.962 537.38 156.083 537.836 155.748Z" fill="white"/>
<path d="M725.078 688.843C725.533 688.508 726.192 688.845 726.549 689.594C726.906 690.344 726.827 691.223 726.372 691.557C725.916 691.892 725.258 691.555 724.901 690.806C724.543 690.056 724.623 689.177 725.078 688.843Z" fill="white"/>
<path d="M628.067 485.26C628.522 484.925 629.181 485.262 629.538 486.011C629.895 486.761 629.816 487.64 629.361 487.974C628.905 488.309 628.247 487.972 627.89 487.223C627.532 486.473 627.612 485.594 628.067 485.26Z" fill="white"/>
<path d="M531.055 281.675C531.51 281.34 532.169 281.677 532.526 282.426C532.883 283.176 532.804 284.054 532.348 284.389C531.893 284.724 531.235 284.387 530.877 283.638C530.52 282.888 530.6 282.009 531.055 281.675Z" fill="white"/>
<path d="M434.047 78.0972C434.503 77.7626 435.161 78.0991 435.518 78.8486C435.875 79.5982 435.796 80.477 435.341 80.8115C434.886 81.1461 434.227 80.8096 433.87 80.0601C433.513 79.3105 433.592 78.4317 434.047 78.0972Z" fill="white"/>
<path d="M833.391 682.552C833.847 682.217 834.506 682.554 834.863 683.303C835.22 684.053 835.14 684.932 834.685 685.267C834.23 685.601 833.571 685.265 833.214 684.515C832.857 683.765 832.936 682.886 833.391 682.552Z" fill="white"/>
<path d="M736.377 478.963C736.833 478.629 737.492 478.965 737.849 479.715C738.206 480.464 738.126 481.343 737.671 481.678C737.216 482.012 736.557 481.676 736.2 480.926C735.843 480.177 735.922 479.298 736.377 478.963Z" fill="white"/>
<path d="M639.37 275.386C639.825 275.051 640.484 275.388 640.841 276.137C641.198 276.887 641.118 277.766 640.663 278.1C640.208 278.435 639.549 278.098 639.192 277.349C638.835 276.599 638.914 275.72 639.37 275.386Z" fill="white"/>
<path d="M542.357 71.8008C542.813 71.4662 543.471 71.8026 543.829 72.5522C544.186 73.3017 544.106 74.1806 543.651 74.5152C543.196 74.8497 542.537 74.5132 542.18 73.7637C541.823 73.0141 541.902 72.1354 542.357 71.8008Z" fill="white"/>
<path d="M542.357 71.8008C542.813 71.4662 543.471 71.8026 543.829 72.5522C544.186 73.3017 544.106 74.1806 543.651 74.5152C543.196 74.8497 542.537 74.5132 542.18 73.7637C541.823 73.0141 541.902 72.1354 542.357 71.8008Z" fill="white"/>
<path d="M692.885 576.899C693.796 576.23 695.113 576.903 695.827 578.402C696.542 579.901 696.383 581.659 695.472 582.328C694.561 582.997 693.244 582.324 692.53 580.825C691.815 579.326 691.974 577.569 692.885 576.899Z" fill="white"/>
<path d="M507.106 163.673C508.017 163.004 509.334 163.677 510.048 165.176C510.763 166.675 510.604 168.433 509.693 169.102C508.782 169.771 507.465 169.098 506.751 167.599C506.036 166.1 506.195 164.342 507.106 163.673Z" fill="white"/>
<path d="M743.93 596.191C744.84 595.522 746.158 596.195 746.872 597.694C747.587 599.193 747.428 600.951 746.517 601.62C745.606 602.29 744.289 601.617 743.574 600.117C742.86 598.618 743.019 596.86 743.93 596.191Z" fill="white"/>
<path d="M558.154 182.971C559.065 182.302 560.382 182.975 561.097 184.474C561.811 185.973 561.652 187.731 560.741 188.4C559.831 189.069 558.513 188.396 557.799 186.897C557.085 185.398 557.244 183.64 558.154 182.971Z" fill="white"/>
<path d="M585.022 69.7682C585.478 69.4336 585.557 68.5548 585.2 67.8052C584.843 67.0557 584.184 66.7192 583.729 67.0538C583.273 67.3883 583.194 68.2672 583.551 69.0168C583.908 69.7663 584.567 70.1028 585.022 69.7682Z" fill="white"/>
<path d="M682.033 273.351C682.489 273.017 682.568 272.138 682.211 271.388C681.854 270.639 681.195 270.302 680.74 270.637C680.285 270.972 680.205 271.85 680.562 272.6C680.919 273.35 681.578 273.686 682.033 273.351Z" fill="white"/>
<path d="M779.042 476.931C779.497 476.596 779.577 475.717 779.22 474.968C778.862 474.218 778.204 473.882 777.749 474.216C777.293 474.551 777.214 475.43 777.571 476.179C777.928 476.929 778.587 477.265 779.042 476.931Z" fill="white"/>
<path d="M876.053 680.514C876.508 680.18 876.588 679.301 876.231 678.551C875.874 677.802 875.215 677.465 874.76 677.8C874.304 678.134 874.225 679.013 874.582 679.763C874.939 680.512 875.598 680.849 876.053 680.514Z" fill="white"/>
<path d="M625.605 131.574C626.06 131.24 626.14 130.361 625.782 129.611C625.425 128.861 624.767 128.525 624.311 128.86C623.856 129.194 623.776 130.073 624.133 130.823C624.491 131.572 625.149 131.909 625.605 131.574Z" fill="white"/>
<path d="M722.614 335.154C723.069 334.819 723.149 333.94 722.791 333.19C722.434 332.441 721.776 332.104 721.32 332.439C720.865 332.774 720.785 333.653 721.143 334.402C721.5 335.152 722.158 335.488 722.614 335.154Z" fill="white"/>
<path d="M819.625 538.737C820.08 538.402 820.16 537.523 819.802 536.774C819.445 536.024 818.787 535.688 818.331 536.023C817.876 536.357 817.796 537.236 818.153 537.986C818.511 538.735 819.169 539.072 819.625 538.737Z" fill="white"/>
<path d="M916.638 742.322C917.093 741.987 917.173 741.108 916.816 740.359C916.458 739.609 915.8 739.273 915.345 739.607C914.889 739.942 914.81 740.821 915.167 741.57C915.524 742.32 916.183 742.656 916.638 742.322Z" fill="white"/>
<path d="M687.037 167.058C687.492 166.723 687.572 165.844 687.215 165.095C686.858 164.345 686.199 164.009 685.744 164.343C685.288 164.678 685.209 165.557 685.566 166.306C685.923 167.056 686.582 167.392 687.037 167.058Z" fill="white"/>
<path d="M784.048 370.641C784.504 370.306 784.583 369.427 784.226 368.678C783.869 367.928 783.21 367.592 782.755 367.926C782.299 368.261 782.22 369.14 782.577 369.889C782.934 370.639 783.593 370.975 784.048 370.641Z" fill="white"/>
<path d="M881.059 574.226C881.515 573.891 881.594 573.012 881.237 572.263C880.88 571.513 880.221 571.177 879.766 571.511C879.31 571.846 879.231 572.725 879.588 573.475C879.945 574.224 880.604 574.56 881.059 574.226Z" fill="white"/>
<path d="M978.068 777.803C978.524 777.469 978.603 776.59 978.246 775.84C977.889 775.091 977.23 774.754 976.775 775.089C976.319 775.423 976.24 776.302 976.597 777.052C976.954 777.801 977.613 778.138 978.068 777.803Z" fill="white"/>
<path d="M612.234 143.227C613.144 142.558 613.304 140.801 612.589 139.301C611.875 137.802 610.558 137.129 609.647 137.799C608.736 138.468 608.577 140.225 609.292 141.725C610.006 143.224 611.323 143.897 612.234 143.227Z" fill="white"/>
<path d="M798.012 556.448C798.922 555.779 799.081 554.021 798.367 552.522C797.653 551.023 796.335 550.35 795.425 551.019C794.514 551.688 794.355 553.446 795.069 554.945C795.784 556.444 797.101 557.117 798.012 556.448Z" fill="white"/>
<path d="M669.999 69.6348C670.454 69.3002 670.534 68.4213 670.177 67.6718C669.819 66.9222 669.161 66.5858 668.706 66.9204C668.25 67.2549 668.171 68.1338 668.528 68.8834C668.885 69.6329 669.544 69.9693 669.999 69.6348Z" fill="white"/>
<path d="M767.008 273.214C767.463 272.88 767.543 272.001 767.186 271.251C766.828 270.502 766.17 270.165 765.714 270.5C765.259 270.834 765.18 271.713 765.537 272.463C765.894 273.212 766.553 273.549 767.008 273.214Z" fill="white"/>
<path d="M864.019 476.798C864.474 476.463 864.554 475.584 864.197 474.835C863.839 474.085 863.181 473.749 862.725 474.083C862.27 474.418 862.19 475.297 862.548 476.046C862.905 476.796 863.563 477.132 864.019 476.798Z" fill="white"/>
<path d="M961.031 680.382C961.486 680.048 961.566 679.169 961.209 678.419C960.851 677.67 960.193 677.333 959.737 677.668C959.282 678.002 959.203 678.881 959.56 679.631C959.917 680.38 960.576 680.717 961.031 680.382Z" fill="white"/>
<path d="M710.579 131.437C711.035 131.103 711.114 130.224 710.757 129.474C710.4 128.725 709.741 128.388 709.286 128.723C708.831 129.057 708.751 129.936 709.108 130.686C709.465 131.435 710.124 131.772 710.579 131.437Z" fill="white"/>
<path d="M807.589 335.017C808.044 334.682 808.124 333.804 807.767 333.054C807.409 332.304 806.751 331.968 806.296 332.303C805.84 332.637 805.761 333.516 806.118 334.266C806.475 335.015 807.134 335.352 807.589 335.017Z" fill="white"/>
<path d="M904.601 538.6C905.056 538.265 905.136 537.387 904.779 536.637C904.422 535.887 903.763 535.551 903.308 535.885C902.852 536.22 902.773 537.099 903.13 537.849C903.487 538.598 904.146 538.935 904.601 538.6Z" fill="white"/>
<path d="M1001.61 742.183C1002.07 741.849 1002.15 740.97 1001.79 740.22C1001.43 739.471 1000.77 739.134 1000.32 739.469C999.861 739.803 999.782 740.682 1000.14 741.432C1000.5 742.181 1001.15 742.518 1001.61 742.183Z" fill="white"/>
<path d="M618.429 78.2057C618.884 77.8711 618.964 76.9923 618.606 76.2428C618.249 75.4932 617.591 75.1567 617.135 75.4912C616.68 75.8257 616.601 76.7046 616.958 77.4542C617.315 78.2038 617.974 78.5402 618.429 78.2057Z" fill="white"/>
<path d="M715.44 281.789C715.895 281.454 715.975 280.576 715.617 279.826C715.26 279.076 714.602 278.74 714.146 279.074C713.691 279.409 713.612 280.288 713.969 281.037C714.326 281.787 714.985 282.124 715.44 281.789Z" fill="white"/>
<path d="M812.451 485.372C812.906 485.037 812.986 484.159 812.628 483.409C812.271 482.659 811.613 482.323 811.157 482.657C810.702 482.992 810.623 483.871 810.98 484.62C811.337 485.37 811.996 485.706 812.451 485.372Z" fill="white"/>
<path d="M909.461 688.951C909.916 688.617 909.996 687.738 909.639 686.989C909.281 686.239 908.623 685.902 908.167 686.237C907.712 686.571 907.633 687.45 907.99 688.2C908.347 688.949 909.006 689.286 909.461 688.951Z" fill="white"/>
<path d="M772.013 166.92C772.468 166.585 772.548 165.706 772.191 164.957C771.833 164.207 771.175 163.871 770.719 164.206C770.264 164.54 770.185 165.419 770.542 166.168C770.899 166.918 771.557 167.254 772.013 166.92Z" fill="white"/>
<path d="M869.025 370.503C869.48 370.168 869.56 369.29 869.203 368.54C868.845 367.79 868.187 367.454 867.731 367.789C867.276 368.123 867.196 369.002 867.554 369.752C867.911 370.501 868.569 370.838 869.025 370.503Z" fill="white"/>
<path d="M966.033 574.083C966.488 573.748 966.568 572.869 966.21 572.12C965.853 571.37 965.195 571.034 964.739 571.368C964.284 571.703 964.204 572.582 964.562 573.331C964.919 574.081 965.578 574.417 966.033 574.083Z" fill="white"/>
<path d="M1063.04 777.666C1063.5 777.331 1063.58 776.452 1063.22 775.703C1062.86 774.953 1062.21 774.617 1061.75 774.951C1061.3 775.286 1061.22 776.165 1061.57 776.914C1061.93 777.664 1062.59 778 1063.04 777.666Z" fill="white"/>
<path d="M787.207 364.654C788.118 363.985 788.277 362.227 787.562 360.728C786.848 359.229 785.531 358.556 784.62 359.225C783.71 359.894 783.55 361.652 784.265 363.151C784.979 364.65 786.296 365.323 787.207 364.654Z" fill="white"/>
<path d="M972.983 777.874C973.893 777.205 974.052 775.447 973.338 773.948C972.623 772.449 971.306 771.776 970.396 772.445C969.485 773.115 969.326 774.872 970.04 776.371C970.755 777.87 972.072 778.543 972.983 777.874Z" fill="white"/>
<path d="M798.155 299.802C799.065 299.133 799.225 297.375 798.51 295.876C797.796 294.377 796.478 293.704 795.568 294.374C794.657 295.043 794.498 296.8 795.212 298.299C795.927 299.799 797.244 300.471 798.155 299.802Z" fill="white"/>
<path d="M983.934 713.027C984.844 712.358 985.004 710.6 984.289 709.101C983.575 707.602 982.257 706.929 981.347 707.598C980.436 708.267 980.277 710.025 980.991 711.524C981.706 713.023 983.023 713.696 983.934 713.027Z" fill="white"/>
<path d="M78.3371 552.998C79.2477 552.329 80.5651 553.002 81.2795 554.501C81.9939 556 81.8347 557.758 80.9241 558.427C80.0135 559.096 78.6962 558.423 77.9819 556.924C77.2675 555.425 77.4265 553.667 78.3371 552.998Z" fill="white"/>
<path d="M393.33 737.504C394.241 736.835 395.558 737.507 396.273 739.006C396.987 740.505 396.828 742.263 395.917 742.932C395.007 743.601 393.689 742.929 392.975 741.43C392.261 739.93 392.42 738.173 393.33 737.504Z" fill="white"/>
<path d="M207.552 324.283C208.463 323.614 209.78 324.287 210.495 325.786C211.209 327.285 211.05 329.043 210.139 329.712C209.229 330.381 207.911 329.708 207.197 328.209C206.483 326.71 206.642 324.952 207.552 324.283Z" fill="white"/>
<path d="M625.109 739.44C625.564 739.106 626.223 739.442 626.58 740.192C626.937 740.941 626.858 741.82 626.402 742.155C625.947 742.489 625.289 742.153 624.931 741.403C624.574 740.654 624.654 739.775 625.109 739.44Z" fill="white"/>
<path d="M528.1 535.862C528.555 535.528 529.214 535.864 529.571 536.614C529.928 537.364 529.849 538.242 529.394 538.577C528.938 538.912 528.279 538.575 527.922 537.826C527.565 537.076 527.645 536.197 528.1 535.862Z" fill="white"/>
<path d="M431.089 332.277C431.544 331.943 432.203 332.279 432.56 333.029C432.917 333.778 432.838 334.657 432.382 334.992C431.927 335.326 431.269 334.99 430.911 334.24C430.554 333.491 430.634 332.612 431.089 332.277Z" fill="white"/>
<path d="M334.077 128.694C334.532 128.36 335.191 128.696 335.548 129.446C335.905 130.195 335.826 131.074 335.37 131.409C334.915 131.743 334.256 131.407 333.899 130.657C333.542 129.908 333.622 129.029 334.077 128.694Z" fill="white"/>
<path d="M334.077 128.694C334.532 128.36 335.191 128.696 335.548 129.446C335.905 130.195 335.826 131.074 335.37 131.409C334.915 131.743 334.256 131.407 333.899 130.657C333.542 129.908 333.622 129.029 334.077 128.694Z" fill="white"/>
<path d="M601.017 665.523C601.473 665.189 602.131 665.525 602.488 666.275C602.846 667.024 602.766 667.903 602.311 668.238C601.855 668.572 601.197 668.236 600.84 667.486C600.482 666.737 600.562 665.858 601.017 665.523Z" fill="white"/>
<path d="M504.008 461.944C504.464 461.609 505.122 461.946 505.48 462.695C505.837 463.445 505.757 464.324 505.302 464.658C504.847 464.993 504.188 464.656 503.831 463.907C503.474 463.157 503.553 462.278 504.008 461.944Z" fill="white"/>
<path d="M406.994 258.355C407.449 258.021 408.108 258.357 408.465 259.107C408.822 259.856 408.743 260.735 408.288 261.07C407.832 261.404 407.174 261.068 406.816 260.318C406.459 259.569 406.539 258.69 406.994 258.355Z" fill="white"/>
<path d="M309.984 54.7756C310.439 54.441 311.098 54.7774 311.455 55.527C311.812 56.2766 311.733 57.1555 311.278 57.4901C310.822 57.8247 310.164 57.4882 309.806 56.7386C309.449 55.9891 309.529 55.1101 309.984 54.7756Z" fill="white"/>
<path d="M309.984 54.7756C310.439 54.441 311.098 54.7774 311.455 55.527C311.812 56.2766 311.733 57.1555 311.278 57.4901C310.822 57.8247 310.164 57.4882 309.806 56.7386C309.449 55.9891 309.529 55.1101 309.984 54.7756Z" fill="white"/>
<path d="M594.237 791.45C594.692 791.115 595.351 791.452 595.708 792.201C596.065 792.951 595.986 793.83 595.53 794.164C595.075 794.499 594.417 794.162 594.059 793.413C593.702 792.663 593.782 791.784 594.237 791.45Z" fill="white"/>
<path d="M497.227 587.866C497.682 587.532 498.341 587.868 498.698 588.618C499.055 589.368 498.976 590.246 498.521 590.581C498.065 590.915 497.407 590.579 497.049 589.829C496.692 589.08 496.772 588.201 497.227 587.866Z" fill="white"/>
<path d="M400.215 384.282C400.67 383.947 401.329 384.284 401.686 385.033C402.043 385.783 401.964 386.662 401.508 386.996C401.053 387.331 400.394 386.994 400.037 386.245C399.68 385.495 399.76 384.616 400.215 384.282Z" fill="white"/>
<path d="M303.206 180.704C303.661 180.37 304.32 180.706 304.677 181.456C305.034 182.205 304.955 183.084 304.499 183.419C304.044 183.753 303.385 183.417 303.028 182.667C302.671 181.918 302.751 181.039 303.206 180.704Z" fill="white"/>
<path d="M702.551 785.159C703.007 784.824 703.665 785.161 704.023 785.911C704.38 786.66 704.3 787.539 703.845 787.874C703.39 788.208 702.731 787.872 702.374 787.122C702.017 786.372 702.096 785.493 702.551 785.159Z" fill="white"/>
<path d="M605.537 581.57C605.992 581.236 606.651 581.572 607.008 582.322C607.366 583.071 607.286 583.95 606.831 584.285C606.375 584.619 605.717 584.283 605.359 583.533C605.002 582.784 605.082 581.905 605.537 581.57Z" fill="white"/>
<path d="M508.528 377.993C508.984 377.658 509.642 377.995 509.999 378.744C510.357 379.494 510.277 380.373 509.822 380.707C509.367 381.042 508.708 380.706 508.351 379.956C507.993 379.206 508.073 378.328 508.528 377.993Z" fill="white"/>
<path d="M411.517 174.408C411.973 174.073 412.631 174.41 412.988 175.159C413.346 175.909 413.266 176.788 412.811 177.122C412.355 177.457 411.697 177.12 411.34 176.371C410.982 175.621 411.062 174.742 411.517 174.408Z" fill="white"/>
<path d="M411.517 174.408C411.973 174.073 412.631 174.41 412.988 175.159C413.346 175.909 413.266 176.788 412.811 177.122C412.355 177.457 411.697 177.12 411.34 176.371C410.982 175.621 411.062 174.742 411.517 174.408Z" fill="white"/>
<path d="M562.044 679.507C562.954 678.837 564.272 679.51 564.986 681.009C565.7 682.508 565.541 684.266 564.631 684.935C563.72 685.604 562.403 684.932 561.688 683.432C560.974 681.933 561.133 680.176 562.044 679.507Z" fill="white"/>
<path d="M376.266 266.28C377.176 265.611 378.494 266.284 379.208 267.783C379.923 269.282 379.763 271.04 378.853 271.709C377.942 272.378 376.625 271.705 375.911 270.206C375.196 268.707 375.355 266.949 376.266 266.28Z" fill="white"/>
<path d="M613.089 698.798C613.999 698.129 615.317 698.802 616.031 700.301C616.745 701.8 616.586 703.558 615.676 704.227C614.765 704.896 613.448 704.224 612.733 702.724C612.019 701.225 612.178 699.467 613.089 698.798Z" fill="white"/>
<path d="M427.313 285.578C428.224 284.909 429.541 285.582 430.256 287.081C430.97 288.58 430.811 290.338 429.9 291.007C428.99 291.676 427.672 291.003 426.958 289.504C426.243 288.005 426.402 286.247 427.313 285.578Z" fill="white"/>
<path d="M454.181 172.375C454.636 172.041 454.716 171.162 454.359 170.412C454.001 169.663 453.343 169.326 452.887 169.661C452.432 169.996 452.352 170.874 452.71 171.624C453.067 172.374 453.726 172.71 454.181 172.375Z" fill="white"/>
<path d="M551.192 375.958C551.647 375.624 551.727 374.745 551.37 373.995C551.012 373.246 550.354 372.909 549.898 373.244C549.443 373.579 549.364 374.457 549.721 375.207C550.078 375.957 550.737 376.293 551.192 375.958Z" fill="white"/>
<path d="M648.201 579.538C648.656 579.203 648.736 578.324 648.379 577.575C648.021 576.825 647.363 576.489 646.907 576.823C646.452 577.158 646.372 578.037 646.73 578.786C647.087 579.536 647.745 579.872 648.201 579.538Z" fill="white"/>
<path d="M745.212 783.121C745.667 782.787 745.747 781.908 745.39 781.158C745.032 780.409 744.374 780.072 743.918 780.407C743.463 780.741 743.384 781.62 743.741 782.37C744.098 783.119 744.757 783.456 745.212 783.121Z" fill="white"/>
<path d="M397.752 30.5982C398.208 30.2636 398.287 29.3847 397.93 28.6351C397.573 27.8856 396.914 27.5492 396.459 27.8838C396.004 28.2184 395.924 29.0972 396.281 29.8468C396.638 30.5964 397.297 30.9328 397.752 30.5982Z" fill="white"/>
<path d="M494.763 234.181C495.219 233.847 495.298 232.968 494.941 232.218C494.584 231.469 493.925 231.132 493.47 231.467C493.015 231.801 492.935 232.68 493.292 233.43C493.649 234.179 494.308 234.516 494.763 234.181Z" fill="white"/>
<path d="M591.773 437.761C592.229 437.426 592.308 436.547 591.951 435.798C591.594 435.048 590.935 434.712 590.48 435.046C590.025 435.381 589.945 436.26 590.302 437.009C590.659 437.759 591.318 438.095 591.773 437.761Z" fill="white"/>
<path d="M688.783 641.344C689.239 641.009 689.318 640.13 688.961 639.381C688.604 638.631 687.945 638.295 687.49 638.629C687.034 638.964 686.955 639.843 687.312 640.592C687.669 641.342 688.328 641.679 688.783 641.344Z" fill="white"/>
<path d="M459.187 66.085C459.642 65.7504 459.722 64.8716 459.365 64.122C459.008 63.3725 458.349 63.036 457.894 63.3706C457.438 63.7052 457.359 64.5842 457.716 65.3337C458.073 66.0833 458.732 66.4196 459.187 66.085Z" fill="white"/>
<path d="M556.196 269.665C556.651 269.33 556.731 268.451 556.374 267.702C556.016 266.952 555.358 266.616 554.903 266.95C554.447 267.285 554.368 268.164 554.725 268.913C555.082 269.663 555.741 269.999 556.196 269.665Z" fill="white"/>
<path d="M653.207 473.248C653.662 472.913 653.742 472.034 653.385 471.285C653.028 470.535 652.369 470.199 651.913 470.533C651.458 470.868 651.379 471.747 651.736 472.496C652.093 473.246 652.752 473.582 653.207 473.248Z" fill="white"/>
<path d="M750.219 676.833C750.674 676.498 750.754 675.619 750.397 674.87C750.04 674.12 749.381 673.784 748.926 674.118C748.47 674.453 748.391 675.332 748.748 676.081C749.105 676.831 749.764 677.167 750.219 676.833Z" fill="white"/>
<path d="M481.395 245.834C482.305 245.165 482.464 243.407 481.75 241.908C481.036 240.409 479.718 239.736 478.808 240.405C477.897 241.075 477.738 242.832 478.452 244.331C479.167 245.831 480.484 246.503 481.395 245.834Z" fill="white"/>
<path d="M667.17 659.055C668.081 658.386 668.24 656.628 667.526 655.129C666.811 653.63 665.494 652.957 664.583 653.626C663.673 654.295 663.514 656.053 664.228 657.552C664.942 659.051 666.26 659.724 667.17 659.055Z" fill="white"/>
<path d="M539.159 172.242C539.614 171.907 539.694 171.029 539.336 170.279C538.979 169.529 538.321 169.193 537.865 169.528C537.41 169.862 537.331 170.741 537.688 171.491C538.045 172.24 538.703 172.577 539.159 172.242Z" fill="white"/>
<path d="M636.167 375.822C636.622 375.487 636.701 374.608 636.344 373.859C635.987 373.109 635.328 372.772 634.873 373.107C634.418 373.442 634.338 374.321 634.695 375.07C635.053 375.82 635.711 376.156 636.167 375.822Z" fill="white"/>
<path d="M733.179 579.404C733.634 579.07 733.714 578.191 733.357 577.441C732.999 576.692 732.341 576.355 731.885 576.69C731.43 577.025 731.35 577.903 731.708 578.653C732.065 579.403 732.723 579.739 733.179 579.404Z" fill="white"/>
<path d="M830.189 782.989C830.645 782.655 830.724 781.776 830.367 781.027C830.01 780.277 829.351 779.941 828.896 780.275C828.441 780.61 828.361 781.489 828.719 782.238C829.076 782.987 829.734 783.324 830.189 782.989Z" fill="white"/>
<path d="M482.728 30.4612C483.183 30.1267 483.263 29.2478 482.906 28.4982C482.548 27.7487 481.89 27.4122 481.435 27.7468C480.979 28.0813 480.9 28.9602 481.257 29.7098C481.614 30.4593 482.273 30.7958 482.728 30.4612Z" fill="white"/>
<path d="M579.74 234.044C580.195 233.71 580.275 232.831 579.918 232.081C579.56 231.332 578.902 230.995 578.447 231.33C577.991 231.665 577.912 232.543 578.269 233.293C578.626 234.042 579.285 234.379 579.74 234.044Z" fill="white"/>
<path d="M676.748 437.624C677.203 437.289 677.283 436.41 676.926 435.661C676.568 434.911 675.91 434.575 675.454 434.909C674.999 435.244 674.919 436.123 675.277 436.872C675.634 437.622 676.292 437.958 676.748 437.624Z" fill="white"/>
<path d="M773.76 641.207C774.215 640.872 774.295 639.993 773.938 639.244C773.581 638.494 772.922 638.158 772.466 638.492C772.011 638.827 771.932 639.706 772.289 640.455C772.646 641.205 773.305 641.541 773.76 641.207Z" fill="white"/>
<path d="M487.588 180.813C488.043 180.478 488.122 179.599 487.765 178.85C487.408 178.1 486.749 177.764 486.294 178.098C485.839 178.433 485.759 179.312 486.116 180.061C486.474 180.811 487.132 181.147 487.588 180.813Z" fill="white"/>
<path d="M584.6 384.396C585.055 384.061 585.134 383.183 584.777 382.433C584.42 381.683 583.761 381.347 583.306 381.681C582.851 382.016 582.771 382.895 583.129 383.644C583.486 384.394 584.144 384.73 584.6 384.396Z" fill="white"/>
<path d="M681.61 587.979C682.065 587.644 682.144 586.766 681.787 586.016C681.43 585.266 680.771 584.93 680.316 585.265C679.861 585.599 679.781 586.478 680.139 587.228C680.496 587.977 681.154 588.313 681.61 587.979Z" fill="white"/>
<path d="M778.62 791.558C779.075 791.224 779.154 790.345 778.797 789.596C778.44 788.846 777.781 788.51 777.326 788.844C776.871 789.179 776.791 790.057 777.149 790.807C777.506 791.557 778.164 791.893 778.62 791.558Z" fill="white"/>
<path d="M544.164 65.9477C544.619 65.6131 544.698 64.7343 544.341 63.9847C543.984 63.2351 543.325 62.8987 542.87 63.2332C542.415 63.5678 542.335 64.4467 542.693 65.1962C543.05 65.9458 543.708 66.2823 544.164 65.9477Z" fill="white"/>
<path d="M641.172 269.527C641.627 269.192 641.706 268.313 641.349 267.564C640.992 266.814 640.333 266.478 639.878 266.812C639.423 267.147 639.343 268.026 639.7 268.775C640.058 269.525 640.716 269.861 641.172 269.527Z" fill="white"/>
<path d="M738.184 473.11C738.639 472.776 738.719 471.897 738.361 471.147C738.004 470.398 737.346 470.061 736.89 470.396C736.435 470.73 736.355 471.609 736.713 472.359C737.07 473.108 737.728 473.445 738.184 473.11Z" fill="white"/>
<path d="M835.194 676.69C835.649 676.355 835.729 675.476 835.371 674.727C835.014 673.977 834.355 673.641 833.9 673.975C833.445 674.31 833.365 675.189 833.722 675.938C834.08 676.688 834.739 677.024 835.194 676.69Z" fill="white"/>
<path d="M470.589 54.0404C471.5 53.3713 471.659 51.6136 470.944 50.1144C470.23 48.6153 468.913 47.9425 468.002 48.6116C467.091 49.2807 466.932 51.0384 467.647 52.5376C468.361 54.0367 469.678 54.7095 470.589 54.0404Z" fill="white"/>
<path d="M656.367 467.261C657.278 466.592 657.437 464.834 656.722 463.335C656.008 461.836 654.691 461.163 653.78 461.832C652.869 462.501 652.71 464.259 653.425 465.758C654.139 467.257 655.456 467.93 656.367 467.261Z" fill="white"/>
<path d="M667.316 402.409C668.226 401.74 668.385 399.982 667.671 398.483C666.957 396.984 665.639 396.311 664.729 396.98C663.818 397.65 663.659 399.407 664.373 400.906C665.088 402.406 666.405 403.078 667.316 402.409Z" fill="white"/>
<path d="M853.092 815.634C854.003 814.965 854.162 813.207 853.448 811.708C852.734 810.209 851.416 809.536 850.505 810.205C849.595 810.874 849.436 812.632 850.15 814.131C850.865 815.631 852.182 816.303 853.092 815.634Z" fill="white"/>
<path d="M76.7133 426.89C77.6239 426.221 78.9412 426.894 79.6556 428.393C80.3699 429.892 80.2109 431.65 79.3003 432.319C78.3897 432.988 77.0723 432.315 76.3579 430.816C75.6435 429.317 75.8027 427.559 76.7133 426.89Z" fill="white"/>
<path d="M397.259 638.469C397.714 638.135 398.373 638.471 398.73 639.221C399.087 639.97 399.007 640.849 398.552 641.184C398.097 641.518 397.438 641.182 397.081 640.432C396.724 639.683 396.803 638.804 397.259 638.469Z" fill="white"/>
<path d="M300.248 434.884C300.703 434.55 301.362 434.886 301.719 435.636C302.076 436.385 301.997 437.264 301.541 437.599C301.086 437.933 300.427 437.597 300.07 436.847C299.713 436.098 299.792 435.219 300.248 434.884Z" fill="white"/>
<path d="M203.237 231.301C203.692 230.967 204.351 231.303 204.708 232.053C205.065 232.802 204.985 233.681 204.53 234.016C204.075 234.35 203.416 234.014 203.059 233.264C202.702 232.515 202.781 231.636 203.237 231.301Z" fill="white"/>
<path d="M203.237 231.301C203.692 230.967 204.351 231.303 204.708 232.053C205.065 232.802 204.985 233.681 204.53 234.016C204.075 234.35 203.416 234.014 203.059 233.264C202.702 232.515 202.781 231.636 203.237 231.301Z" fill="white"/>
<path d="M470.176 768.13C470.631 767.796 471.29 768.132 471.647 768.882C472.004 769.631 471.925 770.51 471.469 770.845C471.014 771.179 470.355 770.843 469.998 770.093C469.641 769.344 469.721 768.465 470.176 768.13Z" fill="white"/>
<path d="M373.168 564.551C373.623 564.216 374.282 564.553 374.639 565.302C374.997 566.052 374.917 566.931 374.462 567.265C374.006 567.6 373.348 567.264 372.991 566.514C372.633 565.764 372.713 564.885 373.168 564.551Z" fill="white"/>
<path d="M276.153 360.962C276.608 360.628 277.267 360.964 277.624 361.714C277.981 362.463 277.902 363.342 277.446 363.677C276.991 364.011 276.332 363.675 275.975 362.925C275.618 362.176 275.698 361.297 276.153 360.962Z" fill="white"/>
<path d="M179.145 157.383C179.6 157.048 180.259 157.385 180.616 158.134C180.973 158.884 180.894 159.763 180.438 160.097C179.983 160.432 179.325 160.095 178.967 159.346C178.61 158.596 178.69 157.717 179.145 157.383Z" fill="white"/>
<path d="M179.145 157.383C179.6 157.048 180.259 157.385 180.616 158.134C180.973 158.884 180.894 159.763 180.438 160.097C179.983 160.432 179.325 160.095 178.967 159.346C178.61 158.596 178.69 157.717 179.145 157.383Z" fill="white"/>
<path d="M366.387 690.474C366.842 690.139 367.5 690.476 367.858 691.225C368.215 691.975 368.135 692.854 367.68 693.188C367.225 693.523 366.566 693.186 366.209 692.437C365.852 691.687 365.931 690.808 366.387 690.474Z" fill="white"/>
<path d="M269.374 486.889C269.829 486.554 270.487 486.891 270.845 487.64C271.202 488.39 271.122 489.269 270.667 489.603C270.212 489.938 269.553 489.601 269.196 488.852C268.839 488.102 268.918 487.223 269.374 486.889Z" fill="white"/>
<path d="M172.367 283.311C172.822 282.977 173.481 283.313 173.838 284.063C174.195 284.812 174.116 285.691 173.66 286.026C173.205 286.36 172.546 286.024 172.189 285.274C171.832 284.525 171.912 283.646 172.367 283.311Z" fill="white"/>
<path d="M474.697 684.177C475.152 683.843 475.811 684.179 476.168 684.929C476.525 685.678 476.446 686.557 475.99 686.892C475.535 687.226 474.876 686.89 474.519 686.14C474.162 685.391 474.242 684.512 474.697 684.177Z" fill="white"/>
<path d="M377.689 480.6C378.144 480.265 378.803 480.602 379.16 481.351C379.517 482.101 379.438 482.98 378.983 483.314C378.527 483.649 377.869 483.313 377.512 482.563C377.154 481.813 377.234 480.935 377.689 480.6Z" fill="white"/>
<path d="M280.676 277.015C281.131 276.68 281.79 277.017 282.147 277.766C282.504 278.516 282.425 279.395 281.969 279.729C281.514 280.064 280.856 279.728 280.498 278.978C280.141 278.228 280.221 277.35 280.676 277.015Z" fill="white"/>
<path d="M280.676 277.015C281.131 276.68 281.79 277.017 282.147 277.766C282.504 278.516 282.425 279.395 281.969 279.729C281.514 280.064 280.856 279.728 280.498 278.978C280.141 278.228 280.221 277.35 280.676 277.015Z" fill="white"/>
<path d="M75.3536 79.7262C75.8089 79.3917 76.4674 79.7281 76.8246 80.4777C77.1818 81.2273 77.1024 82.1062 76.6471 82.4407C76.1918 82.7752 75.5332 82.4388 75.176 81.6892C74.8188 80.9396 74.8983 80.0607 75.3536 79.7262Z" fill="white"/>
<path d="M431.204 782.114C432.114 781.444 433.431 782.117 434.146 783.616C434.86 785.115 434.701 786.873 433.79 787.542C432.88 788.211 431.562 787.539 430.848 786.04C430.134 784.54 430.293 782.783 431.204 782.114Z" fill="white"/>
<path d="M245.425 368.887C246.335 368.218 247.652 368.891 248.367 370.39C249.081 371.889 248.922 373.647 248.012 374.316C247.101 374.985 245.784 374.312 245.069 372.813C244.355 371.314 244.514 369.556 245.425 368.887Z" fill="white"/>
<path d="M482.248 801.405C483.159 800.736 484.476 801.409 485.191 802.908C485.905 804.407 485.746 806.165 484.835 806.834C483.925 807.504 482.607 806.831 481.893 805.331C481.178 803.832 481.338 802.074 482.248 801.405Z" fill="white"/>
<path d="M296.473 388.185C297.384 387.516 298.701 388.189 299.415 389.688C300.13 391.187 299.97 392.945 299.06 393.614C298.149 394.283 296.832 393.61 296.118 392.111C295.403 390.612 295.562 388.854 296.473 388.185Z" fill="white"/>
<path d="M226.329 71.3993C226.784 71.0647 226.863 70.1859 226.506 69.4363C226.149 68.6867 225.49 68.3503 225.035 68.6848C224.58 69.0194 224.5 69.8982 224.857 70.6478C225.215 71.3974 225.873 71.7338 226.329 71.3993Z" fill="white"/>
<path d="M323.34 274.982C323.795 274.648 323.874 273.769 323.517 273.019C323.16 272.27 322.501 271.933 322.046 272.268C321.591 272.602 321.511 273.481 321.868 274.231C322.226 274.98 322.884 275.317 323.34 274.982Z" fill="white"/>
<path d="M420.352 478.566C420.807 478.231 420.887 477.352 420.53 476.603C420.172 475.853 419.514 475.517 419.058 475.851C418.603 476.186 418.523 477.065 418.881 477.814C419.238 478.564 419.896 478.9 420.352 478.566Z" fill="white"/>
<path d="M517.36 682.145C517.815 681.81 517.894 680.932 517.537 680.182C517.18 679.432 516.521 679.096 516.066 679.431C515.611 679.765 515.531 680.644 515.888 681.393C516.246 682.143 516.904 682.479 517.36 682.145Z" fill="white"/>
<path d="M266.913 133.205C267.369 132.87 267.448 131.992 267.091 131.242C266.734 130.492 266.075 130.156 265.62 130.491C265.164 130.825 265.085 131.704 265.442 132.454C265.799 133.203 266.458 133.54 266.913 133.205Z" fill="white"/>
<path d="M363.923 336.788C364.379 336.454 364.458 335.575 364.101 334.825C363.744 334.076 363.085 333.739 362.63 334.074C362.174 334.408 362.095 335.287 362.452 336.037C362.809 336.786 363.468 337.123 363.923 336.788Z" fill="white"/>
<path d="M460.933 540.368C461.388 540.033 461.468 539.154 461.111 538.405C460.754 537.655 460.095 537.319 459.64 537.653C459.184 537.988 459.105 538.867 459.462 539.616C459.819 540.366 460.478 540.702 460.933 540.368Z" fill="white"/>
<path d="M557.944 743.951C558.4 743.616 558.479 742.737 558.122 741.988C557.765 741.238 557.106 740.902 556.651 741.236C556.195 741.571 556.116 742.45 556.473 743.2C556.83 743.949 557.489 744.286 557.944 743.951Z" fill="white"/>
<path d="M328.347 168.692C328.802 168.358 328.882 167.479 328.524 166.729C328.167 165.98 327.509 165.643 327.053 165.978C326.598 166.312 326.518 167.191 326.875 167.941C327.233 168.69 327.891 169.027 328.347 168.692Z" fill="white"/>
<path d="M425.355 372.272C425.81 371.937 425.89 371.058 425.532 370.308C425.175 369.559 424.516 369.222 424.061 369.557C423.606 369.892 423.526 370.771 423.883 371.52C424.241 372.27 424.899 372.606 425.355 372.272Z" fill="white"/>
<path d="M522.367 575.855C522.822 575.52 522.902 574.642 522.544 573.892C522.187 573.142 521.529 572.806 521.073 573.141C520.618 573.475 520.538 574.354 520.896 575.104C521.253 575.853 521.911 576.19 522.367 575.855Z" fill="white"/>
<path d="M619.379 779.44C619.834 779.105 619.914 778.226 619.557 777.477C619.199 776.727 618.541 776.391 618.085 776.725C617.63 777.06 617.55 777.939 617.907 778.688C618.265 779.438 618.923 779.774 619.379 779.44Z" fill="white"/>
<path d="M350.553 348.442C351.464 347.772 351.623 346.015 350.909 344.516C350.194 343.016 348.877 342.344 347.966 343.013C347.056 343.682 346.897 345.44 347.611 346.939C348.325 348.438 349.643 349.111 350.553 348.442Z" fill="white"/>
<path d="M536.329 761.662C537.24 760.993 537.399 759.235 536.685 757.736C535.97 756.237 534.653 755.564 533.742 756.233C532.831 756.903 532.672 758.66 533.387 760.159C534.101 761.659 535.418 762.331 536.329 761.662Z" fill="white"/>
<path d="M311.305 71.2659C311.761 70.9313 311.84 70.0525 311.483 69.303C311.126 68.5534 310.467 68.217 310.012 68.5515C309.556 68.8861 309.477 69.765 309.834 70.5145C310.191 71.2641 310.85 71.6005 311.305 71.2659Z" fill="white"/>
<path d="M408.317 274.849C408.773 274.515 408.852 273.636 408.495 272.886C408.138 272.137 407.479 271.8 407.024 272.135C406.569 272.469 406.489 273.348 406.846 274.098C407.203 274.847 407.862 275.184 408.317 274.849Z" fill="white"/>
<path d="M505.327 478.428C505.783 478.094 505.862 477.215 505.505 476.465C505.148 475.716 504.489 475.379 504.034 475.714C503.579 476.048 503.499 476.927 503.856 477.677C504.214 478.426 504.872 478.763 505.327 478.428Z" fill="white"/>
<path d="M602.337 682.012C602.793 681.677 602.872 680.798 602.515 680.049C602.158 679.299 601.499 678.963 601.044 679.297C600.589 679.632 600.509 680.511 600.866 681.26C601.223 682.01 601.882 682.346 602.337 682.012Z" fill="white"/>
<path d="M351.888 133.068C352.343 132.734 352.423 131.855 352.065 131.105C351.708 130.356 351.05 130.019 350.594 130.354C350.139 130.688 350.059 131.567 350.417 132.317C350.774 133.066 351.433 133.403 351.888 133.068Z" fill="white"/>
<path d="M448.899 336.651C449.354 336.317 449.434 335.438 449.077 334.688C448.719 333.939 448.061 333.602 447.605 333.937C447.15 334.272 447.07 335.15 447.428 335.9C447.785 336.649 448.443 336.986 448.899 336.651Z" fill="white"/>
<path d="M545.908 540.231C546.363 539.896 546.443 539.017 546.085 538.268C545.728 537.518 545.069 537.182 544.614 537.516C544.159 537.851 544.079 538.73 544.436 539.479C544.794 540.229 545.452 540.565 545.908 540.231Z" fill="white"/>
<path d="M642.919 743.814C643.374 743.479 643.454 742.601 643.096 741.851C642.739 741.101 642.081 740.765 641.625 741.1C641.17 741.434 641.09 742.313 641.448 743.062C641.805 743.812 642.463 744.148 642.919 743.814Z" fill="white"/>
<path d="M259.738 79.8402C260.193 79.5057 260.273 78.6269 259.916 77.8773C259.559 77.1278 258.9 76.7913 258.445 77.1259C257.99 77.4604 257.91 78.3392 258.267 79.0888C258.624 79.8383 259.283 80.1748 259.738 79.8402Z" fill="white"/>
<path d="M356.747 283.42C357.203 283.085 357.282 282.206 356.925 281.457C356.568 280.707 355.909 280.371 355.454 280.705C354.999 281.04 354.919 281.919 355.276 282.668C355.633 283.418 356.292 283.754 356.747 283.42Z" fill="white"/>
<path d="M453.758 487.003C454.214 486.669 454.293 485.79 453.936 485.04C453.579 484.29 452.92 483.954 452.465 484.288C452.01 484.623 451.93 485.502 452.287 486.252C452.644 487.001 453.303 487.338 453.758 487.003Z" fill="white"/>
<path d="M550.769 690.586C551.225 690.251 551.304 689.373 550.947 688.623C550.59 687.873 549.931 687.537 549.476 687.872C549.021 688.206 548.941 689.085 549.298 689.834C549.656 690.584 550.314 690.92 550.769 690.586Z" fill="white"/>
<path d="M413.322 168.555C413.778 168.22 413.857 167.341 413.5 166.592C413.143 165.842 412.484 165.506 412.029 165.84C411.573 166.175 411.494 167.054 411.851 167.803C412.208 168.553 412.867 168.889 413.322 168.555Z" fill="white"/>
<path d="M510.332 372.134C510.788 371.799 510.867 370.921 510.51 370.171C510.153 369.421 509.494 369.085 509.039 369.42C508.584 369.754 508.504 370.633 508.861 371.383C509.218 372.132 509.877 372.469 510.332 372.134Z" fill="white"/>
<path d="M607.342 575.717C607.798 575.383 607.877 574.504 607.52 573.754C607.163 573.005 606.504 572.668 606.049 573.003C605.594 573.337 605.514 574.216 605.871 574.966C606.228 575.715 606.887 576.052 607.342 575.717Z" fill="white"/>
<path d="M704.352 779.297C704.808 778.962 704.887 778.083 704.53 777.334C704.173 776.584 703.514 776.248 703.059 776.582C702.604 776.917 702.524 777.796 702.881 778.545C703.238 779.295 703.897 779.631 704.352 779.297Z" fill="white"/>
<path d="M339.748 156.648C340.658 155.979 340.817 154.221 340.103 152.722C339.389 151.223 338.071 150.55 337.161 151.219C336.25 151.888 336.091 153.646 336.805 155.145C337.52 156.644 338.837 157.317 339.748 156.648Z" fill="white"/>
<path d="M525.526 569.868C526.436 569.199 526.595 567.441 525.881 565.942C525.166 564.443 523.849 563.77 522.939 564.439C522.028 565.108 521.869 566.866 522.583 568.365C523.298 569.864 524.615 570.537 525.526 569.868Z" fill="white"/>
<path d="M350.699 91.7958C351.609 91.1267 351.768 89.369 351.054 87.8699C350.34 86.3707 349.022 85.6979 348.112 86.3669C347.201 87.036 347.042 88.7937 347.756 90.2928C348.471 91.792 349.788 92.4648 350.699 91.7958Z" fill="white"/>
<path d="M536.474 505.016C537.385 504.347 537.544 502.589 536.83 501.09C536.116 499.591 534.798 498.918 533.888 499.588C532.977 500.257 532.818 502.015 533.532 503.514C534.246 505.013 535.564 505.685 536.474 505.016Z" fill="white"/>
<path d="M73.0632 428.789C73.9738 428.12 75.2911 428.793 76.0054 430.292C76.7198 431.791 76.5607 433.549 75.65 434.218C74.7394 434.887 73.422 434.214 72.7076 432.715C71.9933 431.216 72.1525 429.458 73.0632 428.789Z" fill="white"/>
<path d="M456.065 788.716C456.976 788.047 458.293 788.72 459.007 790.219C459.722 791.718 459.563 793.476 458.652 794.145C457.741 794.814 456.424 794.141 455.71 792.642C454.995 791.143 455.154 789.385 456.065 788.716Z" fill="white"/>
<path d="M270.286 375.49C271.197 374.821 272.514 375.494 273.228 376.993C273.943 378.492 273.784 380.25 272.873 380.919C271.962 381.588 270.645 380.916 269.931 379.416C269.216 377.917 269.376 376.16 270.286 375.49Z" fill="white"/>
<path d="M653.286 735.416C654.197 734.747 655.514 735.419 656.229 736.919C656.943 738.418 656.784 740.176 655.873 740.845C654.963 741.514 653.645 740.841 652.931 739.342C652.216 737.843 652.376 736.085 653.286 735.416Z" fill="white"/>
<path d="M467.511 322.195C468.421 321.526 469.738 322.199 470.453 323.698C471.167 325.197 471.008 326.955 470.098 327.624C469.187 328.293 467.87 327.621 467.155 326.121C466.441 324.622 466.6 322.865 467.511 322.195Z" fill="white"/>
<path d="M916.959 798.207C917.869 797.538 919.187 798.211 919.901 799.71C920.615 801.209 920.456 802.967 919.546 803.636C918.635 804.305 917.318 803.632 916.603 802.133C915.889 800.634 916.048 798.876 916.959 798.207Z" fill="white"/>
<path d="M714.694 397.102C715.605 396.433 716.922 397.106 717.637 398.605C718.351 400.104 718.192 401.862 717.282 402.531C716.371 403.2 715.054 402.527 714.339 401.028C713.625 399.529 713.784 397.771 714.694 397.102Z" fill="white"/>
<path d="M998.871 530.953C999.781 530.284 1001.1 530.957 1001.81 532.456C1002.53 533.955 1002.37 535.713 1001.46 536.382C1000.55 537.051 999.23 536.378 998.515 534.879C997.801 533.38 997.96 531.622 998.871 530.953Z" fill="white"/>
<path d="M813.095 117.733C814.006 117.064 815.323 117.737 816.037 119.236C816.752 120.735 816.593 122.493 815.682 123.162C814.772 123.831 813.454 123.158 812.74 121.659C812.025 120.16 812.185 118.402 813.095 117.733Z" fill="white"/>
<path d="M1329.71 795.435C1330.62 794.766 1331.94 795.439 1332.65 796.938C1333.37 798.437 1333.21 800.195 1332.3 800.864C1331.39 801.533 1330.07 800.86 1329.36 799.361C1328.64 797.862 1328.8 796.104 1329.71 795.435Z" fill="white"/>
<path d="M1127.45 394.33C1128.36 393.661 1129.68 394.334 1130.39 395.833C1131.1 397.332 1130.95 399.09 1130.03 399.759C1129.12 400.429 1127.81 399.756 1127.09 398.256C1126.38 396.757 1126.54 394.999 1127.45 394.33Z" fill="white"/>
<path d="M1256.66 165.612C1257.57 164.943 1258.89 165.616 1259.6 167.115C1260.32 168.614 1260.16 170.372 1259.25 171.041C1258.34 171.71 1257.02 171.037 1256.31 169.538C1255.59 168.039 1255.75 166.281 1256.66 165.612Z" fill="white"/>
<path d="M1360.56 15.9751C1361.02 15.6405 1361.67 15.977 1362.03 16.7266C1362.39 17.4762 1362.31 18.3551 1361.85 18.6896C1361.4 19.0241 1360.74 18.6876 1360.38 17.9381C1360.03 17.1885 1360.1 16.3096 1360.56 15.9751Z" fill="white"/>
<path d="M1425.38 107.615C1426.29 106.946 1427.6 107.618 1428.32 109.118C1429.03 110.617 1428.87 112.374 1427.96 113.043C1427.05 113.713 1425.74 113.04 1425.02 111.541C1424.31 110.042 1424.47 108.284 1425.38 107.615Z" fill="white"/>
<rect width="1440" height="825" fill="url(#paint1_linear_261_7471)"/>
<rect x="1462" width="193" height="1479" transform="rotate(90 1462 0)" fill="url(#paint2_linear_261_7471)"/>
<defs>
<linearGradient id="paint0_linear_261_7471" x1="0" y1="0" x2="1534.67" y2="570.183" gradientUnits="userSpaceOnUse">
<stop stop-color="#8604CA"/>
<stop offset="1" stop-color="#283CB5"/>
</linearGradient>
<linearGradient id="paint1_linear_261_7471" x1="-1.57901e-07" y1="472.195" x2="1440.01" y2="466.105" gradientUnits="userSpaceOnUse">
<stop offset="0.4" stop-opacity="0.7"/>
<stop offset="1" stop-color="#676767" stop-opacity="0.2"/>
</linearGradient>
<linearGradient id="paint2_linear_261_7471" x1="1462" y1="846.517" x2="1655.01" y2="846.456" gradientUnits="userSpaceOnUse">
<stop stop-opacity="0.7"/>
<stop offset="1" stop-opacity="0"/>
</linearGradient>
</defs>
</svg>
