<svg width="1440" height="122" viewBox="0 0 1440 122" fill="none" xmlns="http://www.w3.org/2000/svg">
<rect x="0.000244141" y="0.00012207" width="1440" height="122" fill="url(#paint0_linear_377_1122)"/>
<path d="M1360.56 15.9752C1361.02 15.6407 1361.67 15.9771 1362.03 16.7267C1362.39 17.4763 1362.31 18.3552 1361.85 18.6897C1361.4 19.0242 1360.74 18.6878 1360.38 17.9382C1360.03 17.1886 1360.1 16.3097 1360.56 15.9752Z" fill="white"/>
<path d="M1425.38 107.615C1426.29 106.946 1427.6 107.619 1428.32 109.118C1429.03 110.617 1428.87 112.374 1427.96 113.044C1427.05 113.713 1425.74 113.04 1425.02 111.541C1424.31 110.042 1424.47 108.284 1425.38 107.615Z" fill="white"/>
<path d="M398.078 86.489C398.988 85.8198 400.306 86.4928 401.02 87.992C401.734 89.4912 401.575 91.2489 400.665 91.918C399.754 92.5872 398.437 91.9143 397.722 90.4151C397.008 88.9159 397.167 87.1581 398.078 86.489Z" fill="white"/>
<path d="M810.83 83.7134C811.741 83.0442 813.058 83.7171 813.772 85.2162C814.487 86.7153 814.328 88.4731 813.417 89.1423C812.506 89.8114 811.189 89.1385 810.475 87.6393C809.76 86.1402 809.92 84.3825 810.83 83.7134Z" fill="white"/>
<path d="M1260.59 66.5777C1261.05 66.2431 1261.71 66.5796 1262.06 67.3292C1262.42 68.0789 1262.34 68.9577 1261.89 69.2923C1261.43 69.6269 1260.77 69.2904 1260.42 68.5408C1260.06 67.7911 1260.14 66.9123 1260.59 66.5777Z" fill="white"/>
<path d="M1338.03 112.286C1338.49 111.951 1339.14 112.288 1339.5 113.037C1339.86 113.787 1339.78 114.666 1339.32 115C1338.87 115.335 1338.21 114.998 1337.85 114.249C1337.5 113.499 1337.57 112.62 1338.03 112.286Z" fill="white"/>
<path d="M1380.69 110.253C1381.15 109.919 1381.23 109.04 1380.87 108.29C1380.51 107.541 1379.86 107.204 1379.4 107.539C1378.94 107.874 1378.87 108.752 1379.22 109.502C1379.58 110.252 1380.24 110.588 1380.69 110.253Z" fill="white"/>
<path d="M1414.1 118.695C1414.56 118.36 1414.64 117.481 1414.28 116.732C1413.92 115.982 1413.26 115.646 1412.81 115.98C1412.35 116.315 1412.27 117.193 1412.63 117.943C1412.99 118.693 1413.65 119.029 1414.1 118.695Z" fill="white"/>
<path d="M20.0503 114.183C20.961 113.514 22.2782 114.187 22.9926 115.686C23.707 117.185 23.5478 118.943 22.6372 119.612C21.7266 120.281 20.4093 119.609 19.6949 118.109C18.9806 116.61 19.1397 114.852 20.0503 114.183Z" fill="white"/>
<path d="M1105.66 95.2662C1106.11 94.9316 1106.77 95.2681 1107.13 96.0177C1107.49 96.7674 1107.41 97.6462 1106.95 97.9808C1106.5 98.3154 1105.84 97.9789 1105.48 97.2293C1105.12 96.4796 1105.2 95.6008 1105.66 95.2662Z" fill="white"/>
<path d="M1001.87 17.6042C1002.32 17.2697 1002.98 17.6061 1003.34 18.3557C1003.69 19.1052 1003.62 19.984 1003.16 20.3186C1002.7 20.6531 1002.05 20.3166 1001.69 19.567C1001.33 18.8175 1001.41 17.9387 1001.87 17.6042Z" fill="white"/>
<path d="M1193.43 71.0831C1193.88 70.7485 1193.96 69.8696 1193.6 69.12C1193.25 68.3704 1192.59 68.034 1192.13 68.3686C1191.68 68.7032 1191.6 69.5821 1191.95 70.3317C1192.31 71.0813 1192.97 71.4177 1193.43 71.0831Z" fill="white"/>
<path d="M1254.86 106.57C1255.32 106.236 1255.39 105.357 1255.04 104.607C1254.68 103.858 1254.02 103.521 1253.57 103.856C1253.11 104.19 1253.03 105.069 1253.39 105.819C1253.75 106.568 1254.4 106.905 1254.86 106.57Z" fill="white"/>
<path d="M1278.4 70.9463C1278.86 70.6117 1278.94 69.7329 1278.58 68.9833C1278.22 68.2337 1277.56 67.8974 1277.11 68.2319C1276.65 68.5665 1276.57 69.4453 1276.93 70.1949C1277.29 70.9445 1277.95 71.2808 1278.4 70.9463Z" fill="white"/>
<path d="M1186.25 17.7186C1186.71 17.3841 1186.79 16.5052 1186.43 15.7556C1186.07 15.006 1185.41 14.6695 1184.96 15.0041C1184.5 15.3386 1184.42 16.2174 1184.78 16.967C1185.14 17.7167 1185.8 18.0531 1186.25 17.7186Z" fill="white"/>
<path d="M1339.84 106.433C1340.29 106.098 1340.37 105.219 1340.01 104.47C1339.66 103.72 1339 103.384 1338.54 103.718C1338.09 104.053 1338.01 104.932 1338.36 105.681C1338.72 106.431 1339.38 106.767 1339.84 106.433Z" fill="white"/>
<path d="M1258.02 100.583C1258.93 99.9141 1259.09 98.1564 1258.37 96.6573C1257.66 95.1581 1256.34 94.4853 1255.43 95.1544C1254.52 95.8236 1254.36 97.5813 1255.08 99.0804C1255.79 100.58 1257.11 101.252 1258.02 100.583Z" fill="white"/>
<path d="M1268.97 35.7319C1269.88 35.0627 1270.04 33.305 1269.32 31.8059C1268.61 30.3068 1267.29 29.634 1266.38 30.3032C1265.47 30.9723 1265.31 32.73 1266.02 34.2291C1266.74 35.7282 1268.06 36.4011 1268.97 35.7319Z" fill="white"/>
<path d="M678.365 60.2124C679.276 59.5432 680.593 60.2161 681.307 61.7153C682.022 63.2144 681.862 64.9721 680.952 65.6413C680.041 66.3104 678.724 65.6376 678.009 64.1384C677.295 62.6393 677.454 60.8815 678.365 60.2124Z" fill="white"/>
<path d="M901.899 68.2069C902.354 67.8723 903.013 68.2087 903.37 68.9583C903.727 69.7079 903.648 70.5868 903.193 70.9213C902.737 71.2559 902.079 70.9194 901.722 70.1699C901.364 69.4203 901.444 68.5414 901.899 68.2069Z" fill="white"/>
<path d="M979.341 113.922C979.796 113.588 980.455 113.924 980.812 114.674C981.169 115.423 981.09 116.302 980.634 116.637C980.179 116.971 979.52 116.635 979.163 115.885C978.806 115.136 978.885 114.257 979.341 113.922Z" fill="white"/>
<path d="M898.125 21.5077C899.035 20.8385 900.352 21.5112 901.067 23.0103C901.781 24.5094 901.622 26.2672 900.711 26.9364C899.801 27.6056 898.483 26.9327 897.769 25.4336C897.055 23.9345 897.214 22.1768 898.125 21.5077Z" fill="white"/>
<path d="M1022 111.888C1022.46 111.553 1022.54 110.675 1022.18 109.925C1021.82 109.175 1021.17 108.839 1020.71 109.174C1020.25 109.508 1020.18 110.387 1020.53 111.137C1020.89 111.886 1021.55 112.223 1022 111.888Z" fill="white"/>
<path d="M1106.98 111.751C1107.43 111.416 1107.51 110.538 1107.16 109.788C1106.8 109.038 1106.14 108.702 1105.68 109.036C1105.23 109.371 1105.15 110.25 1105.51 110.999C1105.86 111.749 1106.52 112.086 1106.98 111.751Z" fill="white"/>
<path d="M1055.41 120.326C1055.87 119.991 1055.94 119.112 1055.59 118.363C1055.23 117.613 1054.57 117.276 1054.12 117.611C1053.66 117.946 1053.58 118.824 1053.94 119.574C1054.3 120.324 1054.95 120.66 1055.41 120.326Z" fill="white"/>
<path d="M103.954 114.937C104.865 114.268 106.182 114.941 106.897 116.44C107.611 117.939 107.452 119.697 106.541 120.366C105.631 121.035 104.313 120.362 103.599 118.863C102.885 117.364 103.044 115.606 103.954 114.937Z" fill="white"/>
<path d="M746.964 96.892C747.42 96.5575 748.078 96.8939 748.435 97.6435C748.793 98.393 748.713 99.2718 748.258 99.6064C747.802 99.941 747.144 99.6046 746.786 98.855C746.429 98.1055 746.509 97.2266 746.964 96.892Z" fill="white"/>
<path d="M643.177 19.2408C643.632 18.9062 644.291 19.2427 644.648 19.9922C645.005 20.7418 644.926 21.6206 644.471 21.9551C644.015 22.2896 643.357 21.9531 643 21.2036C642.642 20.454 642.722 19.5753 643.177 19.2408Z" fill="white"/>
<path d="M751.486 12.9446C751.942 12.6101 752.6 12.9464 752.957 13.696C753.315 14.4455 753.235 15.3244 752.78 15.659C752.324 15.9935 751.666 15.6572 751.309 14.9076C750.951 14.1581 751.031 13.2792 751.486 12.9446Z" fill="white"/>
<path d="M751.486 12.9446C751.942 12.6101 752.6 12.9464 752.957 13.696C753.315 14.4455 753.235 15.3244 752.78 15.659C752.324 15.9935 751.666 15.6572 751.309 14.9076C750.951 14.1581 751.031 13.2792 751.486 12.9446Z" fill="white"/>
<path d="M716.236 104.817C717.146 104.148 718.464 104.821 719.178 106.32C719.892 107.819 719.734 109.577 718.823 110.246C717.912 110.915 716.595 110.242 715.88 108.743C715.166 107.244 715.325 105.486 716.236 104.817Z" fill="white"/>
<path d="M834.734 72.7177C835.189 72.3831 835.268 71.5042 834.911 70.7546C834.554 70.005 833.896 69.6686 833.44 70.0032C832.985 70.3378 832.905 71.2167 833.262 71.9663C833.62 72.7159 834.278 73.0523 834.734 72.7177Z" fill="white"/>
<path d="M896.167 108.201C896.623 107.867 896.702 106.988 896.345 106.238C895.988 105.488 895.329 105.152 894.874 105.487C894.418 105.821 894.339 106.7 894.696 107.45C895.053 108.199 895.712 108.536 896.167 108.201Z" fill="white"/>
<path d="M821.365 84.3712C822.275 83.7021 822.434 81.9444 821.72 80.4453C821.006 78.9461 819.688 78.2732 818.778 78.9423C817.867 79.6115 817.708 81.3692 818.422 82.8683C819.137 84.3674 820.454 85.0404 821.365 84.3712Z" fill="white"/>
<path d="M919.71 72.5809C920.165 72.2464 920.245 71.3675 919.888 70.618C919.531 69.8684 918.872 69.5321 918.417 69.8667C917.961 70.2012 917.882 71.08 918.239 71.8296C918.596 72.5791 919.255 72.9155 919.71 72.5809Z" fill="white"/>
<path d="M827.558 19.3492C828.013 19.0147 828.092 18.1359 827.735 17.3863C827.378 16.6368 826.719 16.3003 826.264 16.6348C825.809 16.9693 825.729 17.8481 826.087 18.5977C826.444 19.3473 827.102 19.6838 827.558 19.3492Z" fill="white"/>
<path d="M981.144 108.063C981.599 107.729 981.679 106.85 981.321 106.1C980.964 105.351 980.306 105.014 979.85 105.349C979.395 105.683 979.315 106.562 979.672 107.312C980.03 108.061 980.688 108.398 981.144 108.063Z" fill="white"/>
<path d="M23.401 37.1706C24.3116 36.5015 25.6289 37.1743 26.3432 38.6735C27.0576 40.1726 26.8985 41.9304 25.9879 42.5995C25.0772 43.2687 23.76 42.5958 23.0456 41.0967C22.3312 39.5975 22.4903 37.8398 23.401 37.1706Z" fill="white"/>
<path d="M464.918 26.0873C465.374 25.7527 466.032 26.0892 466.389 26.8388C466.747 27.5884 466.667 28.4672 466.212 28.8018C465.756 29.1364 465.098 28.7999 464.741 28.0503C464.383 27.3007 464.463 26.4218 464.918 26.0873Z" fill="white"/>
<path d="M464.918 26.0873C465.374 25.7527 466.032 26.0892 466.389 26.8388C466.747 27.5884 466.667 28.4672 466.212 28.8018C465.756 29.1364 465.098 28.7999 464.741 28.0503C464.383 27.3007 464.463 26.4218 464.918 26.0873Z" fill="white"/>
<path d="M434.047 78.0973C434.503 77.7628 435.161 78.0992 435.518 78.8487C435.876 79.5983 435.796 80.4771 435.341 80.8117C434.886 81.1462 434.227 80.8097 433.87 80.0602C433.513 79.3106 433.592 78.4318 434.047 78.0973Z" fill="white"/>
<path d="M542.358 71.8009C542.813 71.4663 543.472 71.8027 543.829 72.5523C544.186 73.3018 544.106 74.1807 543.651 74.5153C543.196 74.8498 542.537 74.5134 542.18 73.7638C541.823 73.0143 541.902 72.1355 542.358 71.8009Z" fill="white"/>
<path d="M542.358 71.8009C542.813 71.4663 543.472 71.8027 543.829 72.5523C544.186 73.3018 544.106 74.1807 543.651 74.5153C543.196 74.8498 542.537 74.5134 542.18 73.7638C541.823 73.0143 541.902 72.1355 542.358 71.8009Z" fill="white"/>
<path d="M585.022 69.7683C585.478 69.4338 585.557 68.5549 585.2 67.8053C584.843 67.0558 584.184 66.7193 583.729 67.0539C583.274 67.3884 583.194 68.2673 583.551 69.0169C583.909 69.7664 584.567 70.1029 585.022 69.7683Z" fill="white"/>
<path d="M669.999 69.6349C670.454 69.3003 670.534 68.4215 670.177 67.6719C669.82 66.9223 669.161 66.5859 668.706 66.9205C668.25 67.2551 668.171 68.1339 668.528 68.8835C668.885 69.6331 669.544 69.9694 669.999 69.6349Z" fill="white"/>
<path d="M618.429 78.2058C618.884 77.8712 618.964 76.9924 618.607 76.2429C618.249 75.4933 617.591 75.1568 617.135 75.4913C616.68 75.8259 616.601 76.7047 616.958 77.4543C617.315 78.2039 617.974 78.5403 618.429 78.2058Z" fill="white"/>
<path d="M309.984 54.7757C310.44 54.4411 311.098 54.7776 311.455 55.5272C311.813 56.2767 311.733 57.1557 311.278 57.4902C310.822 57.8248 310.164 57.4884 309.807 56.7388C309.449 55.9892 309.529 55.1103 309.984 54.7757Z" fill="white"/>
<path d="M309.984 54.7757C310.44 54.4411 311.098 54.7776 311.455 55.5272C311.813 56.2767 311.733 57.1557 311.278 57.4902C310.822 57.8248 310.164 57.4884 309.807 56.7388C309.449 55.9892 309.529 55.1103 309.984 54.7757Z" fill="white"/>
<path d="M397.753 30.5983C398.208 30.2637 398.287 29.3848 397.93 28.6353C397.573 27.8857 396.914 27.5493 396.459 27.8839C396.004 28.2185 395.924 29.0974 396.281 29.8469C396.638 30.5965 397.297 30.9329 397.753 30.5983Z" fill="white"/>
<path d="M459.187 66.0851C459.642 65.7505 459.722 64.8717 459.365 64.1221C459.008 63.3726 458.349 63.0362 457.894 63.3708C457.438 63.7053 457.359 64.5843 457.716 65.3338C458.073 66.0834 458.732 66.4197 459.187 66.0851Z" fill="white"/>
<path d="M482.728 30.4613C483.184 30.1268 483.263 29.2479 482.906 28.4984C482.549 27.7488 481.89 27.4123 481.435 27.7469C480.979 28.0815 480.9 28.9603 481.257 29.7099C481.614 30.4595 482.273 30.7959 482.728 30.4613Z" fill="white"/>
<path d="M544.164 65.9478C544.619 65.6132 544.699 64.7344 544.341 63.9848C543.984 63.2353 543.326 62.8988 542.87 63.2334C542.415 63.5679 542.336 64.4468 542.693 65.1964C543.05 65.9459 543.708 66.2824 544.164 65.9478Z" fill="white"/>
<path d="M470.589 54.0405C471.5 53.3714 471.659 51.6137 470.945 50.1145C470.23 48.6154 468.913 47.9426 468.002 48.6117C467.092 49.2808 466.933 51.0386 467.647 52.5377C468.361 54.0368 469.679 54.7096 470.589 54.0405Z" fill="white"/>
<path d="M75.3538 79.7263C75.809 79.3918 76.4676 79.7283 76.8248 80.4778C77.182 81.2274 77.1025 82.1063 76.6473 82.4408C76.192 82.7754 75.5333 82.4389 75.1761 81.6893C74.819 80.9397 74.8985 80.0608 75.3538 79.7263Z" fill="white"/>
<path d="M226.329 71.3994C226.784 71.0648 226.864 70.186 226.506 69.4364C226.149 68.6868 225.491 68.3504 225.035 68.6849C224.58 69.0195 224.5 69.8984 224.858 70.6479C225.215 71.3975 225.873 71.734 226.329 71.3994Z" fill="white"/>
<path d="M311.305 71.266C311.761 70.9314 311.84 70.0527 311.483 69.3031C311.126 68.5536 310.467 68.2171 310.012 68.5516C309.557 68.8862 309.477 69.7651 309.834 70.5146C310.192 71.2642 310.85 71.6006 311.305 71.266Z" fill="white"/>
<path d="M259.738 79.8404C260.194 79.5058 260.273 78.627 259.916 77.8774C259.559 77.1279 258.9 76.7915 258.445 77.126C257.99 77.4605 257.91 78.3393 258.267 79.0889C258.625 79.8384 259.283 80.1749 259.738 79.8404Z" fill="white"/>
<path d="M350.699 91.7959C351.609 91.1268 351.768 89.3691 351.054 87.87C350.34 86.3708 349.022 85.698 348.112 86.3671C347.201 87.0361 347.042 88.7938 347.757 90.2929C348.471 91.7921 349.788 92.465 350.699 91.7959Z" fill="white"/>
<path d="M1360.56 15.9752C1361.02 15.6407 1361.67 15.9771 1362.03 16.7267C1362.39 17.4763 1362.31 18.3552 1361.85 18.6897C1361.4 19.0242 1360.74 18.6878 1360.38 17.9382C1360.03 17.1886 1360.1 16.3097 1360.56 15.9752Z" fill="white"/>
<path d="M1425.38 107.615C1426.29 106.946 1427.6 107.619 1428.32 109.118C1429.03 110.617 1428.87 112.374 1427.96 113.044C1427.05 113.713 1425.74 113.04 1425.02 111.541C1424.31 110.042 1424.47 108.284 1425.38 107.615Z" fill="white"/>
<rect x="0.000244141" y="0.00012207" width="1440" height="122" fill="url(#paint1_linear_377_1122)"/>
<rect x="1440" y="0.00012207" width="122" height="1440" transform="rotate(90 1440 0.00012207)" fill="url(#paint2_linear_377_1122)"/>
<defs>
<linearGradient id="paint0_linear_377_1122" x1="0.000244141" y1="0.00012207" x2="238.848" y2="600.086" gradientUnits="userSpaceOnUse">
<stop stop-color="#8604CA"/>
<stop offset="1" stop-color="#283CB5"/>
</linearGradient>
<linearGradient id="paint1_linear_377_1122" x1="0.000243983" y1="69.8278" x2="1438.86" y2="28.6809" gradientUnits="userSpaceOnUse">
<stop offset="0.4" stop-opacity="0.7"/>
<stop offset="1" stop-color="#676767" stop-opacity="0.2"/>
</linearGradient>
<linearGradient id="paint2_linear_377_1122" x1="1364" y1="830.507" x2="1741.97" y2="759.215" gradientUnits="userSpaceOnUse">
<stop offset="0.175" stop-opacity="0.3"/>
<stop offset="1" stop-opacity="0.26"/>
</linearGradient>
</defs>
</svg>
