<svg width="482" height="525" viewBox="0 0 482 525" fill="none" xmlns="http://www.w3.org/2000/svg">
<path d="M445.962 126.99L446.942 120.799L450.389 126.002L455.033 125.261L452.291 128.896L454.063 131.388L450.781 131.25L450.121 135.43L446.992 131.965L443.759 133.949L444.591 130.458L440.658 127.897L445.962 126.99Z" fill="white"/>
<path d="M396.451 441.834L401.783 445.131L395.655 446.303L394.546 450.866L392.253 446.933L389.265 447.605L390.658 444.635L387.061 442.403L391.466 440.861L390.886 437.11L393.787 439.232L397.667 436.594L396.451 441.834Z" fill="white"/>
<path d="M111.405 413.179L104.68 420.092L104.953 410.506L98.4636 407.323L105.134 405.182L105.113 400.474L109.11 403.559L113.65 398.883L114.518 406.006L120.348 406.381L116.19 410.036L118.869 416.737L111.405 413.179Z" fill="white"/>
<path d="M375.961 380.025L378.32 387.129L382.534 381.275L388.654 383.264L386.271 376.128L391.587 372.36L384.946 371.643L384.562 364.983L380.112 371.178L371.422 369.238L375.825 375.338L370.501 378.319L375.961 380.025Z" fill="white"/>
<path d="M259.868 99.9214L261.849 97.4764L258.814 97.3089L258.137 94.6853L256.144 97.1472L253.608 96.1165L254.853 98.635L252.585 100.281L255.787 100.454L257.064 103.978L258.229 101.031L260.495 102.248L259.868 99.9214Z" fill="white"/>
<path d="M413.813 266.328L413.518 264.489L412.248 265.765L410.83 265.027L411.133 266.876L409.683 267.592L411.275 268.028L411.111 269.679L412.448 268.329L414.499 269.149L413.655 267.484L415.087 266.961L413.813 266.328Z" fill="white"/>
<path d="M422.764 372.425L424.306 371.395L422.629 370.769L422.71 369.171L421.157 370.21L419.903 369.177L420.162 370.814L418.599 371.336L420.364 372.003L420.465 374.216L421.64 372.758L422.708 373.848L422.764 372.425Z" fill="white"/>
<path d="M414.403 153.379L415.945 152.348L414.277 151.724L414.349 150.125L412.796 151.163L411.551 150.132L411.81 151.769L410.237 152.299L412.013 152.958L412.114 155.171L413.286 153.722L414.346 154.802L414.403 153.379Z" fill="white"/>
<path d="M135.117 370.745L135.447 368.912L133.829 369.689L132.735 368.52L132.404 370.362L130.797 370.541L132.155 371.495L131.443 372.992L133.152 372.172L134.811 373.638L134.584 371.781L136.1 371.776L135.117 370.745Z" fill="white"/>
<path d="M213.149 76.0198L212.442 74.3087L211.502 75.8284L209.949 75.4448L210.663 77.1664L209.411 78.192L211.067 78.2537L211.278 79.9024L212.269 78.2872L214.456 78.6222L213.261 77.1865L214.532 76.3508L213.149 76.0198Z" fill="white"/>
<path d="M90.3564 311.693L93.7568 306.937L88.1309 306.966L86.5785 302.176L83.1558 306.957L78.3392 305.335L80.9304 309.863L76.9001 313.152L82.8533 313.125L85.6246 319.512L87.4513 313.93L91.7828 315.931L90.3564 311.693Z" fill="white"/>
<path d="M131.534 214.847L135.277 216.192L134.219 212.513L137.068 210.605L133.307 209.247L133.479 205.792L130.989 208.332L128.083 206.303L129.204 210.197L125.534 213.193L129.532 213.36L129.023 216.56L131.534 214.847Z" fill="white"/>
<path d="M158.252 104.207C158.002 103.806 141.59 93.0985 123.895 102.981C107.618 112.039 99.5134 132.316 101.383 133.101C103.676 134.059 111.65 124.979 124.971 121.283C129.697 119.974 136.479 122.947 136.479 122.947L158.252 104.207Z" fill="#E13535"/>
<path opacity="0.1" d="M136.492 122.921C134.478 122.063 132.369 121.444 130.211 121.077C133.796 115.693 140.523 105.656 144.886 99.1594C149.664 99.8185 154.238 101.528 158.277 104.164L136.492 122.921Z" fill="black"/>
<path d="M182.29 142.583C182.541 142.984 185.033 162.427 168.388 174.032C153.182 184.686 131.426 183.186 131.505 181.149C131.639 178.671 143.292 175.454 152.433 165.084C155.677 161.409 155.962 154.004 155.962 154.004L182.29 142.583Z" fill="#E13535"/>
<path opacity="0.1" d="M180.922 156.893C173.112 157.99 161.134 159.644 154.785 160.597C155.435 158.46 155.83 156.253 155.96 154.023L182.287 142.601C182.903 147.407 182.437 152.291 180.922 156.893Z" fill="black"/>
<path d="M138.031 159.503L123.781 136.76C123.781 136.76 136.215 114.032 159.825 100.964C171.626 94.4577 184.968 90.232 196.713 87.8613C212.919 84.5923 226.056 84.8269 227.713 87.4705C229.37 90.114 223.876 102.041 213.844 115.202C206.601 124.734 196.975 134.894 185.928 142.651C163.909 158.24 138.031 159.503 138.031 159.503Z" fill="#F8F4D3"/>
<path d="M184.432 133.595C181.841 135.228 178.824 136.056 175.763 135.975C172.701 135.893 169.733 134.905 167.233 133.135C164.733 131.366 162.815 128.895 161.72 126.035C160.625 123.174 160.403 120.054 161.083 117.067C161.762 114.081 163.312 111.364 165.536 109.258C167.761 107.153 170.56 105.755 173.579 105.242C176.598 104.728 179.702 105.121 182.497 106.372C185.293 107.622 187.654 109.674 189.283 112.267C191.462 115.741 192.175 119.936 191.266 123.934C190.356 127.932 187.899 131.406 184.432 133.595Z" fill="#252520"/>
<path d="M185.425 132.288C182.831 133.914 179.812 134.735 176.752 134.645C173.691 134.556 170.726 133.561 168.231 131.786C165.737 130.011 163.824 127.536 162.736 124.674C161.648 121.812 161.433 118.692 162.118 115.708C162.803 112.724 164.358 110.01 166.586 107.91C168.814 105.809 171.615 104.417 174.634 103.909C177.653 103.4 180.756 103.799 183.548 105.054C186.341 106.309 188.699 108.364 190.324 110.959C191.404 112.681 192.133 114.599 192.471 116.603C192.809 118.607 192.749 120.658 192.294 122.639C191.839 124.619 190.998 126.491 189.82 128.147C188.641 129.803 187.148 131.21 185.425 132.288Z" fill="#E13535"/>
<path d="M182.921 128.26C181.122 129.389 179.029 129.96 176.905 129.899C174.782 129.839 172.725 129.151 170.993 127.921C169.261 126.691 167.933 124.976 167.176 122.991C166.419 121.006 166.268 118.842 166.741 116.771C167.215 114.701 168.291 112.817 169.835 111.358C171.379 109.9 173.321 108.932 175.415 108.577C177.51 108.222 179.662 108.496 181.6 109.364C183.539 110.233 185.176 111.656 186.306 113.455C187.82 115.867 188.314 118.782 187.679 121.558C187.044 124.335 185.333 126.745 182.921 128.26Z" fill="#E13535"/>
<path d="M182.921 128.26C181.796 128.97 180.548 129.462 179.241 129.71L170.802 127.779C169.735 126.985 168.825 126 168.116 124.875C167.604 124.048 167.205 123.156 166.928 122.224L185.144 126.402C184.489 127.117 183.741 127.742 182.921 128.26Z" fill="#EBEBEB"/>
<path d="M187.048 114.853L170.233 111.009C170.632 110.665 171.056 110.351 171.501 110.07C173.913 108.556 176.828 108.062 179.604 108.697C182.381 109.332 184.791 111.043 186.305 113.455C186.583 113.905 186.831 114.372 187.048 114.853Z" fill="#EBEBEB"/>
<path d="M186.609 124.359L166.499 119.758C166.472 119.446 166.467 119.133 166.485 118.821L187.029 123.522C186.907 123.785 186.746 124.061 186.609 124.359Z" fill="#EBEBEB"/>
<path d="M213.862 115.204L196.732 87.864C212.938 84.595 226.074 84.8295 227.731 87.4731C229.388 90.1167 223.894 102.044 213.862 115.204Z" fill="#E13535"/>
<path d="M202.51 90.7948C202.304 90.9166 202.059 90.9542 201.826 90.8996C201.594 90.845 201.391 90.7026 201.261 90.502C201.191 90.3036 201.191 90.0874 201.261 89.889C201.331 89.6906 201.466 89.5219 201.644 89.4105C201.822 89.2991 202.033 89.2517 202.242 89.2761C202.451 89.3006 202.645 89.3954 202.793 89.545C202.916 89.7496 202.955 89.994 202.903 90.2269C202.85 90.4598 202.709 90.6633 202.51 90.7948Z" fill="#E13535"/>
<path d="M205.557 95.6599C205.352 95.783 205.108 95.8222 204.875 95.7694C204.642 95.7165 204.439 95.5757 204.307 95.3763C204.205 95.2221 204.152 95.041 204.154 94.8562C204.156 94.6715 204.214 94.4916 204.319 94.3397C204.424 94.1878 204.572 94.0708 204.744 94.0038C204.916 93.9368 205.105 93.9228 205.285 93.9637C205.465 94.0046 205.629 94.0985 205.755 94.2332C205.882 94.368 205.965 94.5375 205.994 94.7199C206.023 94.9023 205.997 95.0893 205.919 95.2568C205.842 95.4243 205.715 95.5647 205.557 95.6599Z" fill="#E13535"/>
<path d="M208.604 100.525C208.4 100.648 208.155 100.687 207.923 100.635C207.69 100.582 207.486 100.441 207.355 100.241C207.253 100.087 207.2 99.9061 207.202 99.7214C207.204 99.5367 207.261 99.3568 207.366 99.2049C207.471 99.053 207.619 98.936 207.792 98.869C207.964 98.802 208.152 98.788 208.332 98.8289C208.512 98.8698 208.676 98.9636 208.803 99.0984C208.929 99.2331 209.012 99.4026 209.041 99.585C209.071 99.7675 209.045 99.9545 208.967 100.122C208.889 100.29 208.763 100.43 208.604 100.525Z" fill="#E13535"/>
<path d="M211.652 105.39C211.447 105.513 211.203 105.553 210.97 105.5C210.737 105.447 210.534 105.306 210.402 105.107C210.3 104.952 210.247 104.771 210.249 104.587C210.251 104.402 210.308 104.222 210.414 104.07C210.519 103.918 210.667 103.801 210.839 103.734C211.011 103.667 211.2 103.653 211.38 103.694C211.56 103.735 211.724 103.829 211.85 103.964C211.976 104.098 212.06 104.268 212.089 104.45C212.118 104.633 212.092 104.82 212.014 104.987C211.936 105.155 211.81 105.295 211.652 105.39Z" fill="#E13535"/>
<path d="M214.699 110.255C214.545 110.358 214.364 110.413 214.179 110.412C213.993 110.41 213.813 110.354 213.66 110.249C213.507 110.144 213.39 109.995 213.322 109.823C213.255 109.65 213.241 109.461 213.282 109.28C213.323 109.1 213.418 108.936 213.553 108.809C213.688 108.683 213.859 108.6 214.042 108.571C214.225 108.543 214.412 108.569 214.58 108.649C214.747 108.728 214.887 108.855 214.982 109.015C215.102 109.218 215.14 109.46 215.087 109.691C215.035 109.922 214.896 110.124 214.699 110.255Z" fill="#E13535"/>
<path d="M128.806 137.001C128.652 137.102 128.471 137.156 128.286 137.154C128.102 137.151 127.922 137.094 127.77 136.989C127.618 136.884 127.501 136.736 127.434 136.564C127.367 136.391 127.353 136.203 127.394 136.023C127.435 135.843 127.528 135.679 127.663 135.553C127.798 135.426 127.967 135.343 128.15 135.314C128.332 135.284 128.519 135.31 128.687 135.388C128.854 135.466 128.995 135.592 129.09 135.751C129.213 135.955 129.252 136.2 129.199 136.433C129.147 136.666 129.006 136.869 128.806 137.001Z" fill="#252520"/>
<path d="M131.854 141.866C131.7 141.967 131.518 142.021 131.334 142.019C131.149 142.017 130.969 141.959 130.817 141.854C130.665 141.749 130.548 141.601 130.481 141.429C130.414 141.257 130.4 141.068 130.441 140.888C130.482 140.708 130.576 140.544 130.711 140.418C130.845 140.291 131.015 140.208 131.197 140.179C131.38 140.15 131.567 140.176 131.734 140.253C131.902 140.331 132.042 140.458 132.137 140.616C132.261 140.821 132.3 141.065 132.247 141.298C132.194 141.531 132.053 141.734 131.854 141.866Z" fill="#252520"/>
<path d="M134.901 146.731C134.747 146.833 134.566 146.886 134.381 146.884C134.197 146.882 134.017 146.824 133.865 146.719C133.713 146.614 133.596 146.466 133.529 146.294C133.462 146.122 133.448 145.933 133.489 145.753C133.53 145.573 133.623 145.409 133.758 145.283C133.893 145.156 134.062 145.073 134.245 145.044C134.427 145.015 134.614 145.041 134.782 145.119C134.949 145.196 135.09 145.323 135.185 145.481C135.308 145.686 135.347 145.93 135.294 146.163C135.242 146.396 135.101 146.599 134.901 146.731Z" fill="#252520"/>
<path d="M137.946 151.614C137.792 151.716 137.611 151.769 137.426 151.767C137.241 151.765 137.061 151.708 136.909 151.603C136.758 151.498 136.641 151.349 136.574 151.177C136.507 151.005 136.493 150.817 136.534 150.637C136.574 150.456 136.668 150.293 136.803 150.166C136.938 150.04 137.107 149.957 137.29 149.927C137.472 149.898 137.659 149.924 137.827 150.002C137.994 150.08 138.135 150.206 138.23 150.364C138.353 150.569 138.392 150.813 138.339 151.046C138.286 151.279 138.145 151.483 137.946 151.614Z" fill="#252520"/>
<path d="M140.996 156.461C140.842 156.563 140.661 156.616 140.476 156.614C140.291 156.612 140.111 156.555 139.96 156.45C139.808 156.344 139.691 156.196 139.624 156.024C139.557 155.852 139.543 155.664 139.584 155.483C139.624 155.303 139.718 155.139 139.853 155.013C139.988 154.887 140.157 154.804 140.34 154.774C140.522 154.745 140.709 154.771 140.877 154.849C141.044 154.927 141.185 155.053 141.28 155.211C141.403 155.416 141.442 155.66 141.389 155.893C141.336 156.126 141.196 156.33 140.996 156.461Z" fill="#252520"/>
<path opacity="0.2" d="M226.847 86.728C214.813 85.8578 193.201 90.0942 169.055 103.955C151.216 114.246 136.364 134.483 129.215 145.432L123.781 136.76C123.781 136.76 136.207 114.022 159.825 100.964C171.618 94.4473 184.968 90.232 196.713 87.8614C211.265 84.9051 223.29 84.8104 226.847 86.728Z" fill="#E13535"/>
<path d="M129.876 161.691L118.294 143.198L124.577 138.045L137.263 158.278L129.876 161.691Z" fill="#E13535"/>
<path opacity="0.1" d="M137.254 158.277L133.665 159.938L122.178 140.018L124.577 138.045L137.254 158.277Z" fill="black"/>
<path opacity="0.6" d="M127.339 157.564C120.159 160.952 113.765 165.8 108.565 171.799C103.322 177.873 99.7911 185.234 98.3346 193.124C97.6466 197.13 97.5572 201.215 98.069 205.246C98.5946 209.356 99.7127 213.368 101.389 217.157C103.105 221.024 105.312 224.654 107.956 227.956C110.645 231.305 113.668 234.372 116.978 237.109C113.326 234.744 109.925 232.011 106.829 228.953C103.689 225.842 100.961 222.342 98.7101 218.538C94.0605 210.663 91.8478 201.587 92.3511 192.456C92.9729 183.121 96.0728 174.122 101.331 166.384C106.622 158.606 113.478 152.018 121.461 147.042L127.339 157.564Z" fill="#E13535"/>
<path d="M114.824 165.903L112.209 166.002L111.252 168.614L111.073 165.838L108.593 165.002L111.212 164.745L112.166 162.292L112.376 164.913L114.824 165.903Z" fill="#E13535"/>
<path d="M98.1678 214.848L96.7092 214.909L96.1712 216.365L96.077 214.817L94.6861 214.345L96.1566 214.202L96.6826 212.828L96.8071 214.296L98.1678 214.848Z" fill="#E13535"/>
<path d="M99.2913 201.709L97.8341 201.761L97.2961 203.217L97.1927 201.668L95.8096 201.206L97.271 201.062L97.8062 199.689L97.9215 201.156L99.2913 201.709Z" fill="#E13535"/>
<path d="M114.147 157.256L112.689 157.316L112.151 158.772L112.057 157.225L110.666 156.752L112.136 156.609L112.662 155.236L112.787 156.704L114.147 157.256Z" fill="#E13535"/>
<path d="M101.052 218.577C100.943 218.561 100.832 218.589 100.743 218.656C100.655 218.722 100.596 218.82 100.58 218.93C100.565 219.039 100.593 219.15 100.659 219.239C100.725 219.327 100.824 219.386 100.933 219.402C101.042 219.417 101.154 219.389 101.242 219.323C101.331 219.257 101.389 219.158 101.405 219.049C101.421 218.939 101.393 218.828 101.326 218.74C101.26 218.651 101.162 218.593 101.052 218.577Z" fill="#E13535"/>
<path d="M122.097 156.357C121.988 156.341 121.877 156.369 121.788 156.435C121.7 156.502 121.641 156.6 121.625 156.71C121.61 156.819 121.638 156.93 121.704 157.019C121.77 157.107 121.869 157.166 121.978 157.181C122.087 157.197 122.199 157.169 122.287 157.103C122.376 157.037 122.434 156.938 122.45 156.829C122.466 156.719 122.438 156.608 122.371 156.52C122.305 156.431 122.207 156.373 122.097 156.357Z" fill="#E13535"/>
<path d="M94.5459 189.957C94.4365 189.942 94.3254 189.97 94.2368 190.036C94.1483 190.102 94.0897 190.201 94.0739 190.31C94.0581 190.419 94.0864 190.531 94.1525 190.619C94.2187 190.708 94.3173 190.766 94.4266 190.782C94.536 190.798 94.6471 190.77 94.7356 190.703C94.8241 190.637 94.8827 190.539 94.8985 190.429C94.9144 190.32 94.8861 190.209 94.8199 190.12C94.7538 190.032 94.6552 189.973 94.5459 189.957Z" fill="#E13535"/>
<path d="M100.641 216.375C100.563 216.364 100.484 216.384 100.421 216.431C100.358 216.478 100.317 216.548 100.306 216.626C100.294 216.704 100.314 216.783 100.361 216.846C100.408 216.909 100.479 216.95 100.556 216.962C100.634 216.973 100.713 216.953 100.776 216.906C100.839 216.859 100.881 216.789 100.892 216.711C100.903 216.633 100.883 216.554 100.836 216.491C100.789 216.428 100.719 216.387 100.641 216.375Z" fill="#E13535"/>
<path d="M96.4792 175.551C96.4098 175.553 96.3433 175.58 96.2915 175.627C96.2397 175.673 96.2059 175.736 96.1959 175.805C96.186 175.874 96.2006 175.944 96.2371 176.003C96.2736 176.062 96.3298 176.106 96.3958 176.128C96.4653 176.126 96.5317 176.099 96.5835 176.053C96.6353 176.007 96.6691 175.944 96.6791 175.875C96.689 175.806 96.6745 175.736 96.6379 175.677C96.6014 175.617 96.5452 175.573 96.4792 175.551Z" fill="#E13535"/>
<path d="M95.1432 205.815C94.9446 205.807 94.7504 205.874 94.5979 206.001C94.4453 206.129 94.3452 206.308 94.3168 206.504C94.2884 206.701 94.3336 206.901 94.4438 207.066C94.5541 207.232 94.7215 207.35 94.914 207.4C95.1125 207.407 95.3068 207.341 95.4593 207.213C95.6118 207.086 95.712 206.907 95.7404 206.71C95.7688 206.514 95.7236 206.313 95.6133 206.148C95.5031 205.983 95.3357 205.864 95.1432 205.815Z" fill="#E13535"/>
<path d="M100.615 173.343C100.416 173.336 100.222 173.402 100.07 173.529C99.9171 173.657 99.817 173.836 99.7886 174.033C99.7602 174.229 99.8054 174.429 99.9156 174.595C100.026 174.76 100.193 174.879 100.386 174.928C100.584 174.935 100.779 174.869 100.931 174.742C101.084 174.614 101.184 174.435 101.212 174.238C101.241 174.042 101.195 173.842 101.085 173.676C100.975 173.511 100.807 173.392 100.615 173.343Z" fill="#E13535"/>
<path d="M324.887 363.856C324.887 363.856 326.062 390.143 310.388 400.411C294.713 410.678 279.391 411.774 249.119 400.793C218.847 389.812 199.508 378.653 185.293 388.271C185.293 388.271 182.228 392 188.373 401.251C194.519 410.502 200.371 430.58 180.65 441.722C157.405 454.861 128.104 433.02 126.952 401.396C125.801 369.772 154.385 335.301 201.041 344.18C247.697 353.059 260.339 364.475 269.133 366.018C277.927 367.561 280.387 360.059 280.387 360.059L324.887 363.856Z" fill="#855586"/>
<path d="M186.326 397.943C170.163 393.931 153.925 395.605 141.478 407.36C137.558 411.048 134.074 415.174 131.094 419.655C133.503 414.739 136.68 410.238 140.505 406.321C152.62 393.696 170.558 391.65 186.359 397.91L186.326 397.943Z" fill="#632441"/>
<path d="M193.62 384.892C190.28 368.787 178.356 358.682 162.15 357.031C157.075 356.512 151.964 356.458 146.879 356.871C151.931 355.739 157.114 355.308 162.283 355.591C178.953 356.364 192.477 367.889 193.593 384.888L193.62 384.892Z" fill="#632441"/>
<path d="M185.299 388.225C172.252 376.311 155.161 374.635 139.112 381.023C137.109 381.94 134.025 383.149 132.097 384.255C130.97 384.868 129.826 385.47 128.675 386.052C136.928 379.762 147.052 375.408 157.587 375.453C168.019 375.503 178.666 380.082 185.253 388.219L185.299 388.225Z" fill="#632441"/>
<path d="M201.886 384.787C205.376 372.037 204.83 357.047 195.175 347.102C193.845 345.694 192.431 344.368 190.941 343.131C192.669 344.068 194.298 345.178 195.803 346.444C206.871 355.612 207.852 372.507 201.876 384.785L201.886 384.787Z" fill="#632441"/>
<path d="M211.845 386.938C220.394 377.108 224.184 365.262 219.5 352.696C219.013 351.016 218.117 349.325 217.521 347.686C218.582 349.165 219.526 350.725 220.345 352.35C226.656 364.534 222.469 378.736 211.845 386.938Z" fill="#632441"/>
<path d="M224.176 391.19C230.3 387.307 235.075 381.627 237.846 374.927C240.689 368.21 240.298 360.754 237.962 353.878C239.878 357.138 241.018 360.794 241.295 364.565C241.572 368.335 240.979 372.119 239.56 375.623C236.647 382.442 231.226 388.627 224.216 391.177L224.176 391.19Z" fill="#632441"/>
<path d="M239.569 397.167C250.019 391.466 257.298 381.752 258.094 369.716C258.204 367.012 258.159 364.304 257.957 361.605C258.46 363.364 258.826 365.159 259.052 366.974C260.862 380.331 252.303 393.2 239.56 397.166L239.569 397.167Z" fill="#632441"/>
<path d="M259.62 404.248C262.54 402.36 264.116 399.033 265.654 396.028C269.919 386.72 272.14 376.013 269.158 365.975C274.278 375.527 271.992 387.581 266.932 396.699C265.122 399.646 263 402.997 259.62 404.248Z" fill="#632441"/>
<path d="M281.729 408.483C285.657 396.451 285.484 380.964 278.562 370.094C277.52 368.489 276.358 366.964 275.087 365.532C276.638 366.708 278.05 368.058 279.295 369.555C287.65 379.696 288.039 397.254 281.729 408.483Z" fill="#632441"/>
<path d="M279.08 362.433C295.124 369.084 306.655 386.7 303.587 404.226C303.634 386.376 293.87 371.803 279.08 362.433Z" fill="#632441"/>
<path d="M280.412 360.016C297.83 359.878 315.558 371.384 320.117 388.628C312.732 372.36 297.721 362.837 280.412 360.016Z" fill="#632441"/>
<path opacity="0.1" d="M321.995 383.923C304.635 387.147 276.441 392.069 271.867 391.033C266.95 389.911 204.568 371.284 201.67 369.003C199.323 367.12 183.106 352.288 173.909 343.896C182.891 342.249 192.105 342.33 201.057 344.136C247.711 353.024 260.364 364.432 269.158 365.975C277.952 367.518 280.411 360.025 280.411 360.025L324.887 363.856C325.014 370.658 324.037 377.435 321.995 383.923Z" fill="black"/>
<path d="M206.433 225.771C203.549 225.184 200.633 224.763 197.701 224.508C195.721 224.702 193.773 225.139 191.9 225.811C191.9 225.811 184.034 218.565 175.859 219.207C167.684 219.849 153.43 233.943 150.267 246.693C147.105 259.444 143.355 291.07 148.71 305.399C154.065 319.727 198.635 362.952 205.443 367.238C212.25 371.525 255.842 383.927 273.013 386.083C290.184 388.238 341.991 365.441 355.839 355.321C364.698 348.847 373.997 311.905 375.26 304.334C376.523 296.762 368.75 270.56 368.75 270.56L206.433 225.771Z" fill="#EBBBE3"/>
<path opacity="0.1" d="M375.273 304.308C374.009 311.889 364.711 348.821 355.854 355.285C342 365.442 290.198 388.212 273.027 386.056C255.855 383.901 212.254 371.497 205.457 367.203C198.66 362.909 154.072 319.681 148.712 305.38C145.575 296.994 145.571 282.663 146.731 269.661C146.725 277.788 153.387 298.994 155.838 303.717C158.288 308.439 202.253 351.773 211.843 355.452C221.432 359.13 269.146 370.136 278.409 371.41C287.672 372.684 346.451 351.933 351.951 347.986C357.452 344.039 371.301 319.551 375.273 304.308Z" fill="black"/>
<path d="M209.008 223.552C209.008 223.552 198.208 199.335 200.324 189.295C202.439 179.255 236.57 150.095 249.273 142.915C261.976 135.734 289.38 134.851 298.432 136.16C307.485 137.469 331.814 151.127 331.814 151.127C331.814 151.127 335.785 144.62 340.656 129.956C342.931 123.082 386.316 155.033 378.139 196.318C378.139 196.318 383.284 238.36 383.143 243.868C383.001 249.376 365.123 266.602 365.123 266.602C354.112 269.236 342.882 270.846 331.575 271.414C311.664 272.491 289.16 271.894 261.779 261.555C221.655 246.39 209.008 223.552 209.008 223.552Z" fill="white"/>
<path d="M231.112 156.144C232.7 146.458 228.062 121.476 226.461 118.055C224.861 114.634 255.155 112.392 281.054 135.893L231.112 156.144Z" fill="white"/>
<path opacity="0.1" d="M237.094 153.716C237.094 153.716 237.976 133.714 232.209 123.395C231.243 121.665 252.7 125.488 269.335 141.12C269.335 141.12 261.521 143.928 256.054 146.028C256.054 146.028 252.525 143.647 249.617 143.058C246.709 142.469 241.816 143.38 241.816 143.38C241.816 143.38 247.152 145.293 248.474 146.438C249.305 147.216 249.98 148.145 250.463 149.176C249.42 148.41 248.292 147.766 247.102 147.259C246.073 147.089 245.023 147.102 244 147.297C244.757 147.456 245.474 147.767 246.107 148.211C246.741 148.654 247.278 149.222 247.686 149.878C247.686 149.878 239.429 152.772 237.094 153.716Z" fill="black"/>
<path opacity="0.1" d="M335.252 154.262C335.252 154.262 340.591 142.762 342.732 134.877C343.251 132.969 366.942 151.745 361.962 178.75C361.962 178.75 353.308 169.249 348.718 165.61C348.718 165.61 349.748 160.231 348.747 157.448C347.746 154.666 344.494 150.894 344.494 150.894C344.494 150.894 345.556 156.491 345.256 158.178C345.002 159.293 344.531 160.347 343.872 161.28C344.002 159.995 343.983 158.699 343.813 157.418C343.453 156.454 342.926 155.561 342.258 154.78C342.506 155.512 342.604 156.287 342.544 157.058C342.484 157.83 342.267 158.581 341.909 159.266C340.07 157.145 337.8 155.439 335.252 154.262Z" fill="black"/>
<path opacity="0.1" d="M365.161 266.598C354.15 269.233 342.919 270.846 331.612 271.419C311.702 272.488 289.207 271.891 261.817 261.551C222.907 246.851 209.821 224.979 209.045 223.623C211.997 227.791 235.361 246.435 241.372 249.437C247.383 252.439 282.161 262.921 297.494 263.165C312.828 263.409 354.486 259.367 357.538 257.667C360.59 255.966 369.599 240.3 371.407 235.885C373.215 231.469 373.042 194.178 373.042 194.178C373.042 194.178 384.098 161.316 350.846 133.104C363.859 142.469 383.951 167.057 378.186 196.315C378.186 196.315 383.332 238.357 383.189 243.874C383.046 249.391 365.161 266.598 365.161 266.598Z" fill="black"/>
<path d="M243.186 173.623C235.828 170.688 229.163 176.478 225.687 185.058C222.868 192.003 224.336 200.868 231.407 203.724C238.477 206.579 246.208 200.018 248.853 193.497C251.498 186.976 251.193 176.858 243.186 173.623Z" fill="#632441"/>
<path d="M243.184 175.709C236.275 172.904 229.999 178.395 226.743 186.427C224.096 192.957 225.53 201.284 232.129 203.968C238.728 206.653 246.037 200.489 248.486 194.351C250.936 188.214 250.695 178.75 243.184 175.709Z" fill="white"/>
<path d="M243.916 179.379C238.509 177.184 233.594 181.478 231.033 187.805C228.965 192.922 230.062 199.441 235.262 201.512C240.463 203.583 246.152 198.784 248.086 194.013C250.02 189.241 249.793 181.753 243.916 179.379Z" fill="#632441"/>
<path d="M299.52 193.845C309.792 194.807 314.222 203.183 313.348 212.392C312.643 219.857 305.824 226.907 295.968 225.977C286.113 225.048 280.85 215.513 281.507 208.508C282.165 201.503 288.354 192.792 299.52 193.845Z" fill="#632441"/>
<path d="M298.348 195.677C308.001 196.587 312.166 204.457 311.344 213.122C310.685 220.136 304.274 226.757 295.009 225.885C285.743 225.013 280.801 216.048 281.415 209.468C282.03 202.887 287.846 194.692 298.348 195.677Z" fill="white"/>
<path d="M298.526 197.49C306.415 198.238 309.808 204.659 309.141 211.728C308.961 213.292 308.472 214.806 307.701 216.179C306.93 217.553 305.894 218.76 304.653 219.729C303.412 220.699 301.99 221.412 300.47 221.827C298.951 222.242 297.364 222.35 295.802 222.146C288.235 221.435 284.203 214.127 284.709 208.747C284.864 207.095 285.346 205.491 286.127 204.027C286.908 202.564 287.973 201.271 289.259 200.223C290.545 199.175 292.026 198.394 293.617 197.925C295.208 197.455 296.877 197.308 298.526 197.49Z" fill="#632441"/>
<path d="M264.981 202.414C264.601 203.295 257.916 205.209 257.258 205.039C256.6 204.869 251.827 199.708 251.943 198.714C252.059 197.721 257.455 198.894 258.81 199.286C260.166 199.679 265.345 201.513 264.981 202.414Z" fill="#632441"/>
<path d="M245.796 204.223C246.349 205.828 246.915 207.416 247.613 208.929C247.941 209.656 248.35 210.342 248.832 210.976C249.008 211.221 249.25 211.412 249.529 211.526C249.815 211.555 250.103 211.506 250.363 211.385C251.033 211.052 251.637 210.601 252.146 210.053C252.709 209.473 253.23 208.855 253.705 208.201C254.695 206.888 255.594 205.508 256.397 204.073L257.848 201.476L258.029 204.496C258.145 206.5 258.43 208.49 258.88 210.446C259.092 211.404 259.399 212.338 259.796 213.235C260.106 214.071 260.65 214.799 261.363 215.333L261.625 215.464L261.9 215.504C262.114 215.554 262.331 215.585 262.55 215.598C263.015 215.609 263.479 215.556 263.929 215.442C264.888 215.188 265.81 214.812 266.673 214.323C268.456 213.307 270.131 212.11 271.67 210.752C270.347 212.374 268.809 213.807 267.097 215.011C266.215 215.624 265.253 216.114 264.239 216.469C263.118 216.912 261.869 216.905 260.753 216.451C259.727 215.854 258.912 214.951 258.423 213.869C257.943 212.894 257.561 211.874 257.282 210.823C256.745 208.769 256.404 206.668 256.263 204.549L257.901 204.926C257.041 206.434 256.064 207.873 254.978 209.227C254.417 209.909 253.812 210.553 253.166 211.154C252.485 211.811 251.672 212.315 250.781 212.633C250.252 212.822 249.677 212.84 249.137 212.686C248.632 212.451 248.213 212.063 247.941 211.577C247.474 210.821 247.108 210.007 246.85 209.156C246.349 207.547 245.996 205.896 245.796 204.223Z" fill="#632441"/>
<path d="M221.54 189.089C217.43 187.69 213.281 186.435 209.109 185.271C204.937 184.106 200.738 183.003 196.474 182.088C194.368 181.577 192.25 181.149 190.126 180.702C188.002 180.254 185.876 179.882 183.75 179.518C179.485 178.733 175.189 178.168 170.88 177.564C173.05 177.699 175.22 177.826 177.359 178.042C179.498 178.258 181.676 178.526 183.791 178.841C188.098 179.464 192.364 180.296 196.617 181.229C200.869 182.162 205.06 183.32 209.221 184.623C211.298 185.269 213.359 185.96 215.407 186.677C217.454 187.394 219.564 188.204 221.54 189.089Z" fill="#632441"/>
<path d="M219.203 191.089C217.286 190.691 215.37 190.292 213.448 189.939C211.525 189.586 209.606 189.206 207.681 188.872C203.841 188.195 199.988 187.544 196.114 187.031C194.181 186.751 192.248 186.472 190.314 186.192L184.488 185.537L181.577 185.228L178.656 184.983C176.714 184.768 174.758 184.71 172.802 184.52C176.72 184.469 180.645 184.56 184.547 184.872C188.449 185.183 192.355 185.598 196.244 186.133C200.133 186.667 203.988 187.374 207.817 188.19C211.647 189.005 215.457 189.949 219.203 191.089Z" fill="#632441"/>
<path d="M219.698 193.743C218.071 193.61 216.445 193.469 214.813 193.373C213.18 193.277 211.565 193.128 209.939 193.052C206.69 192.881 203.443 192.693 200.186 192.577C196.929 192.461 193.666 192.383 190.427 192.335C187.188 192.288 183.881 192.324 180.644 192.258C182.264 192.1 183.892 191.967 185.529 191.861C187.157 191.788 188.788 191.705 190.426 191.633C193.687 191.525 196.981 191.58 200.223 191.675C203.464 191.77 206.724 191.998 209.995 192.34C213.266 192.682 216.469 193.108 219.698 193.743Z" fill="#632441"/>
<path d="M315.068 225.082C317.734 225.467 320.37 226.063 323 226.631C325.631 227.198 328.243 227.894 330.845 228.598C336.057 230.006 341.2 231.638 346.293 233.413C351.387 235.188 356.413 237.178 361.332 239.386C363.804 240.463 366.236 241.629 368.658 242.802C369.874 243.38 371.063 244.02 372.254 244.65L375.823 246.551C370.929 244.3 366.059 242.015 361.065 240.002C358.587 238.961 356.081 237.981 353.586 236.993C351.091 236.006 348.548 235.096 346.007 234.232C340.95 232.397 335.824 230.777 330.672 229.209C325.52 227.641 320.317 226.299 315.068 225.082Z" fill="#632441"/>
<path d="M316.188 228.723C320.868 230.055 325.465 231.646 330.018 233.342C334.572 235.039 339.051 236.921 343.511 238.876C347.971 240.83 352.331 242.958 356.618 245.27C360.904 247.583 365.108 250.015 369.203 252.619C367.044 251.502 364.959 250.265 362.787 249.184L359.561 247.492L356.308 245.862C354.145 244.773 351.938 243.733 349.772 242.672C347.606 241.61 345.39 240.635 343.154 239.666C338.767 237.657 334.268 235.781 329.775 233.99C327.525 233.078 325.268 232.188 323.006 231.318C320.749 230.43 318.471 229.558 316.188 228.723Z" fill="#632441"/>
<path d="M313.939 231.204C317.71 232.685 321.365 234.448 324.983 236.272C328.601 238.095 332.142 240.066 335.658 242.081C339.174 244.095 342.614 246.248 345.955 248.499C347.664 249.616 349.31 250.78 350.978 251.929C352.645 253.077 354.259 254.274 355.863 255.535C352.432 253.383 349.011 251.167 345.574 249.061C342.137 246.956 338.7 244.85 335.185 242.826C331.671 240.803 328.171 238.809 324.637 236.858C322.907 235.878 321.08 234.931 319.289 233.989C317.499 233.047 315.744 232.111 313.939 231.204Z" fill="#632441"/>
<path d="M238.025 162.484C241.638 158.975 247.93 158.669 252.009 161.448C247.322 161.151 242.617 161.5 238.025 162.484Z" fill="#632441"/>
<path d="M319.532 189.031C316.34 185.553 312.686 182.529 308.672 180.043C313.639 180.172 318.559 184.054 319.462 189.002L319.532 189.031Z" fill="#632441"/>
<path d="M256.278 246.364C254.668 243.487 253.539 240.366 252.937 237.125C252.922 237.069 252.891 237.018 252.847 236.979C252.804 236.94 252.75 236.915 252.692 236.907C252.634 236.898 252.576 236.907 252.523 236.932C252.47 236.957 252.426 236.997 252.396 237.047C252.069 237.692 251.153 239.496 251.065 239.782C251.018 239.589 250.981 239.396 250.943 239.204C250.817 238.562 250.726 237.903 250.667 237.227C250.539 235.9 250.523 234.565 250.618 233.235C250.709 231.903 250.916 230.581 251.236 229.284C251.557 227.974 252.038 226.715 252.467 225.43C252.475 225.375 252.378 225.333 252.348 225.413C251.595 226.605 251.004 227.89 250.588 229.237C250.165 230.519 249.862 231.837 249.682 233.175C249.498 234.522 249.448 235.884 249.534 237.241C249.581 237.95 249.657 238.653 249.771 239.352C249.845 240.03 250.034 240.69 250.331 241.304C250.554 241.701 251.173 241.426 251.294 241.106C251.326 240.887 252.45 238.355 252.625 237.988C253.116 241.034 254.297 243.927 256.079 246.447C256.132 246.595 256.344 246.486 256.278 246.364Z" fill="#632441"/>
<path d="M371.803 274.294C343.187 282.456 290.518 283.334 253.281 267.22C216.043 251.107 200.543 226.593 200.265 223.924C199.986 221.256 202.672 218.66 205.608 218.215C206.671 220.052 207.805 221.844 208.995 223.578C219.623 239.09 242.276 258.323 281.676 267.762C320.398 277.103 360.395 267.92 370.507 265.332C374.274 265.549 377.191 272.734 371.803 274.294Z" fill="#632441"/>
<path d="M263.268 359.417C273.156 365.225 284.589 367.858 296.021 366.96C284.892 370.626 271.767 367.4 263.268 359.417Z" fill="#632441"/>
<path d="M296.357 307.189C299.878 301.15 305.232 295.302 312.245 293.313C321.448 291.838 332.81 297.615 340.609 302.092C345.516 304.952 350.059 308.395 354.14 312.346C345.163 305.622 335.201 300.325 324.607 296.644C320.441 295.369 315.95 294.018 311.666 295.119C305.395 297.215 300.38 302.009 296.386 307.184L296.357 307.189Z" fill="#632441"/>
<path d="M340.175 302.637C344.363 302.339 348.513 303.606 351.821 306.192C348.012 304.779 344.124 303.592 340.175 302.637Z" fill="#632441"/>
<path d="M305.601 304.008C314.372 311.983 317.991 315.939 315.733 326.828C313.766 336.291 283.279 362.957 265.75 365.8C264.241 366.082 262.691 366.059 261.191 365.731C259.691 365.403 258.272 364.778 257.018 363.892L305.601 304.008Z" fill="#EBBBE3"/>
<path d="M291.42 299.347C279.487 300.755 249.556 340.392 249.516 351.021C249.479 359.491 254.643 364.858 262.091 364.775C270.968 364.647 311.461 330.56 312.832 321.273C314.365 310.934 304.257 297.836 291.42 299.347Z" fill="#A24C8A"/>
<path d="M312.847 321.238L289.327 299.915C290.003 299.635 290.713 299.445 291.439 299.35C291.715 299.31 291.994 299.285 292.273 299.274C292.501 299.251 292.731 299.241 292.96 299.243L312.886 317.278C312.916 317.525 312.938 317.762 312.948 318.016C313.038 319.09 313.005 320.172 312.847 321.238Z" fill="#632441"/>
<path d="M312.948 318.016L292.273 299.274C292.501 299.251 292.731 299.241 292.96 299.243L293.691 299.236L312.771 316.522C312.824 316.772 312.862 317.024 312.886 317.278C312.916 317.525 312.938 317.762 312.948 318.016Z" fill="#855586"/>
<path d="M309.284 327.636C309.189 327.772 309.087 327.897 308.974 328.03C308.493 328.644 307.97 329.279 307.409 329.927L280.719 305.751C281.362 305.189 281.991 304.654 282.606 304.153L282.997 303.845L309.284 327.636Z" fill="#632441"/>
<path d="M309.582 327.258C309.489 327.385 309.386 327.51 309.284 327.636C309.181 327.761 309.087 327.897 308.974 328.03L282.606 304.153L282.997 303.845C283.133 303.743 283.262 303.631 283.397 303.538L309.582 327.258Z" fill="#855586"/>
<path d="M302.544 335.173L302.194 335.525C301.626 336.088 301.046 336.668 300.448 337.246L273.563 312.873L275.244 311.077L275.584 310.733L302.544 335.173Z" fill="#632441"/>
<path d="M302.885 334.82C302.766 334.934 302.654 335.058 302.544 335.173L302.194 335.525L275.211 311.044L275.551 310.7L275.884 310.337L302.885 334.82Z" fill="#855586"/>
<path d="M295.203 342.147C295.084 342.26 294.964 342.374 294.827 342.485C294.233 343.035 293.602 343.58 292.986 344.09L266.959 320.505C267.472 319.868 267.985 319.232 268.506 318.605C268.617 318.481 268.71 318.354 268.823 318.221L295.203 342.147Z" fill="#632441"/>
<path d="M295.565 341.844L295.199 342.174C295.08 342.288 294.96 342.402 294.823 342.513L268.496 318.67C268.608 318.545 268.701 318.418 268.814 318.285L269.139 317.911L295.565 341.844Z" fill="#855586"/>
<path d="M287.496 348.806C287.361 348.898 287.232 349.011 287.105 349.114C286.468 349.639 285.822 350.163 285.173 350.705L260.849 328.667C261.319 328.005 261.798 327.345 262.289 326.668C262.391 326.542 262.476 326.405 262.588 326.281L287.496 348.806Z" fill="#632441"/>
<path d="M287.87 348.485C287.75 348.599 287.624 348.693 287.496 348.805C287.367 348.918 287.232 349.011 287.105 349.114L262.293 326.64C262.395 326.515 262.48 326.377 262.592 326.253C262.679 326.11 262.777 325.975 262.885 325.846L287.87 348.485Z" fill="#855586"/>
<path d="M279.428 355.113L279.02 355.409C278.321 355.932 277.627 356.421 276.937 356.876L255.265 337.204C255.676 336.497 256.105 335.792 256.565 335.072C256.651 334.926 256.746 334.79 256.823 334.642L279.428 355.113Z" fill="#632441"/>
<path d="M279.825 354.824L279.428 355.113L279.02 355.409L256.565 335.072C256.651 334.926 256.746 334.79 256.823 334.642C256.901 334.494 257.002 334.378 257.089 334.231L279.825 354.824Z" fill="#855586"/>
<path d="M270.854 360.973L270.412 361.246C269.626 361.702 268.87 362.145 268.17 362.521L250.545 346.559C250.822 345.804 251.163 345.002 251.547 344.159L251.763 343.695L270.854 360.973Z" fill="#632441"/>
<path d="M271.322 360.713L270.891 360.978L270.449 361.251L251.547 344.159L251.763 343.695C251.786 343.539 251.911 343.389 251.989 343.232L271.322 360.713Z" fill="#855586"/>
<path d="M259.821 364.625C259.51 364.58 259.207 364.536 258.905 364.492C256.944 364.066 255.128 363.132 253.641 361.785C252.153 360.437 251.045 358.722 250.428 356.812C250.321 356.516 250.226 356.203 250.14 355.891L259.821 364.625Z" fill="#632441"/>
<path d="M260.667 364.729C260.383 364.687 260.099 364.646 259.824 364.607C259.549 364.567 259.21 364.518 258.908 364.474L250.43 356.794C250.324 356.498 250.229 356.185 250.143 355.873C250.057 355.561 249.992 355.299 249.922 355.009L260.667 364.729Z" fill="#855586"/>
<path d="M307.139 305.4C323.269 317.086 317.12 330.696 304.707 342.146C301.204 345.427 297.469 348.451 293.53 351.193C296.952 347.844 300.427 344.577 303.685 341.128C315.177 328.993 320.962 318.679 307.139 305.4Z" fill="#632441"/>
<path d="M299.527 345.429C299.33 346.672 298.863 347.857 298.16 348.901C297.456 349.945 296.533 350.822 295.454 351.472C296.65 349.353 298.012 347.332 299.527 345.429Z" fill="#632441"/>
<path d="M257.021 363.874C263.687 367.261 271.32 364.286 277.605 361.378C278.554 360.964 279.469 360.46 280.412 360.016C277.058 362.557 273.246 364.429 269.185 365.53C265.165 366.548 260.424 366.536 257.021 363.874Z" fill="#632441"/>
<path d="M279.658 362.517C278.78 363.243 277.737 363.741 276.621 363.968C275.505 364.195 274.35 364.143 273.258 363.818C273.789 363.65 274.327 363.51 274.872 363.396C276.444 363.072 278.022 362.701 279.676 362.52L279.658 362.517Z" fill="#632441"/>
<path d="M149.115 295.027C160.563 295.715 171.945 292.864 181.716 286.861C173.469 295.182 160.311 298.265 149.115 295.027Z" fill="#632441"/>
<path d="M161.174 228.384C171.342 214.672 182.234 215.939 193.947 226.921C197.042 229.811 199.694 233.141 201.816 236.805C199.118 233.638 196.156 230.707 192.962 228.041C180.801 218.023 172.858 216.8 161.173 228.393L161.174 228.384Z" fill="#632441"/>
<path d="M138.766 221.439C150.446 219.387 155.786 218.943 163.01 227.396C169.291 234.74 171.734 275.166 163.257 290.768C162.555 292.134 161.587 293.346 160.41 294.332C159.233 295.319 157.87 296.06 156.402 296.511L138.766 221.439Z" fill="#EBBBE3"/>
<path d="M126.423 229.813C120.252 240.146 133.269 288.04 141.651 294.575C148.324 299.787 155.744 298.998 160.225 293.042C165.554 285.946 163.37 233.06 156.865 226.292C149.663 218.787 133.066 218.744 126.423 229.813Z" fill="#A24C8A"/>
<path d="M156.841 226.27L125.581 231.824C125.773 231.117 126.057 230.438 126.425 229.804C126.563 229.562 126.717 229.332 126.872 229.102C126.992 228.906 127.125 228.718 127.271 228.542L153.734 223.819C153.95 223.944 154.146 224.075 154.35 224.217C155.257 224.802 156.093 225.491 156.841 226.27Z" fill="#632441"/>
<path d="M154.35 224.217L126.872 229.102C126.991 228.905 127.125 228.718 127.271 228.542C127.413 228.338 127.564 228.135 127.711 227.96L153.068 223.442C153.296 223.556 153.519 223.682 153.734 223.819C153.95 223.944 154.141 224.111 154.35 224.217Z" fill="#855586"/>
<path d="M159.766 233.016C159.81 233.163 159.852 233.328 159.884 233.492C160.083 234.25 160.258 235.042 160.426 235.89L124.976 242.213C124.923 241.354 124.882 240.534 124.876 239.738C124.898 239.583 124.867 239.41 124.854 239.24L159.766 233.016Z" fill="#632441"/>
<path d="M159.602 232.534C159.644 232.69 159.678 232.844 159.72 233.009C159.761 233.174 159.806 233.321 159.838 233.485L124.83 239.732C124.853 239.576 124.821 239.403 124.809 239.233C124.796 239.063 124.856 238.903 124.816 238.729L159.602 232.534Z" fill="#855586"/>
<path d="M161.555 242.956C161.534 243.103 161.593 243.28 161.616 243.442C161.725 244.244 161.823 245.053 161.909 245.879L126.164 252.244C126.02 251.428 125.885 250.613 125.766 249.82C125.79 249.655 125.728 249.496 125.705 249.334L161.555 242.956Z" fill="#632441"/>
<path d="M161.487 242.46L161.557 242.947C161.536 243.094 161.594 243.271 161.618 243.433L125.766 249.82C125.79 249.655 125.729 249.496 125.705 249.334C125.682 249.172 125.65 249.008 125.616 248.853L161.487 242.46Z" fill="#855586"/>
<path d="M162.579 253.02C162.603 253.183 162.617 253.347 162.62 253.512C162.688 254.336 162.738 255.157 162.786 255.987L128.221 262.148C128.018 261.352 127.844 260.55 127.632 259.752C127.599 259.589 127.556 259.433 127.524 259.269L162.579 253.02Z" fill="#632441"/>
<path d="M162.556 252.53C162.535 252.677 162.575 252.851 162.588 253.021C162.612 253.184 162.626 253.349 162.629 253.513L127.65 259.755C127.617 259.591 127.575 259.435 127.542 259.272C127.51 259.108 127.477 258.944 127.436 258.779L162.556 252.53Z" fill="#855586"/>
<path d="M163.13 263.183C163.124 263.349 163.128 263.515 163.142 263.681C163.163 264.507 163.183 265.342 163.194 266.167L130.876 271.923C130.643 271.141 130.41 270.359 130.18 269.559C130.137 269.403 130.085 269.246 130.052 269.082L163.13 263.183Z" fill="#632441"/>
<path d="M163.107 262.693C163.085 262.849 163.116 263.022 163.13 263.183C163.124 263.349 163.128 263.515 163.142 263.68L130.161 269.556C130.119 269.4 130.066 269.243 130.034 269.08C129.977 268.924 129.931 268.764 129.897 268.601L163.107 262.693Z" fill="#855586"/>
<path d="M163.182 273.433L163.165 273.936C163.153 274.795 163.127 275.623 163.093 276.442L134.235 281.623C133.923 280.867 133.625 280.085 133.338 279.286C133.277 279.127 133.225 278.97 133.162 278.82L163.182 273.433Z" fill="#632441"/>
<path d="M163.198 272.93L163.182 273.433L163.165 273.936L133.343 279.249C133.282 279.09 133.23 278.933 133.167 278.784L133.001 278.32L163.198 272.93Z" fill="#855586"/>
<path d="M162.572 283.793C162.546 283.977 162.522 284.142 162.498 284.307C162.366 285.223 162.244 286.066 162.129 286.863L138.711 291.035C138.286 290.35 137.862 289.596 137.438 288.774C137.357 288.622 137.275 288.479 137.204 288.319L162.572 283.793Z" fill="#632441"/>
<path d="M162.62 283.333C162.595 283.507 162.571 283.672 162.547 283.837C162.524 284.002 162.497 284.185 162.473 284.35L137.422 288.819C137.341 288.667 137.259 288.524 137.189 288.364C137.1 288.215 137.022 288.06 136.956 287.9L162.62 283.333Z" fill="#855586"/>
<path d="M158.715 294.751C158.493 294.969 158.26 295.176 158.017 295.37C156.477 296.669 154.621 297.538 152.637 297.89C150.653 298.242 148.611 298.064 146.718 297.375C146.423 297.276 146.113 297.156 145.831 297.041L158.715 294.751Z" fill="#632441"/>
<path d="M159.343 294.159C159.154 294.365 158.947 294.569 158.752 294.756C158.53 294.974 158.297 295.181 158.054 295.375L146.718 297.375C146.423 297.276 146.113 297.156 145.831 297.041C145.548 296.925 145.284 296.812 145.012 296.688L159.343 294.159Z" fill="#855586"/>
<path d="M196.055 229.939C197.272 229.974 198.467 230.276 199.554 230.823C200.642 231.369 201.597 232.148 202.351 233.103C200.156 232.254 198.047 231.194 196.055 229.939Z" fill="#632441"/>
<path d="M162.53 226.84C170.164 233.556 169.92 253.941 168.66 263.496C168.467 261.916 168.359 260.338 168.241 258.759C167.898 254.21 167.584 249.197 167.112 244.705C166.826 241.606 166.385 238.523 165.791 235.468C165.123 232.453 164.451 229.335 162.531 226.831L162.53 226.84Z" fill="#632441"/>
<path d="M168.621 254.193C169.438 255.15 170.035 256.276 170.371 257.49C170.706 258.703 170.771 259.976 170.561 261.217C169.735 258.929 169.086 256.58 168.621 254.193Z" fill="#632441"/>
<path d="M159.151 295.487C164.16 291.057 165.584 284.379 167.262 278.204C166.897 284.55 165.024 292.071 159.151 295.487Z" fill="#632441"/>
<path d="M168.667 280.391C168.65 281.532 168.35 282.651 167.795 283.648C167.239 284.645 166.445 285.489 165.484 286.104C165.702 285.565 165.968 285.089 166.215 284.61C166.988 283.207 167.739 281.763 168.695 280.395L168.667 280.391Z" fill="#632441"/>
<path d="M198.973 242.754C196.716 250.342 193.301 282.755 204.645 286.716C215.99 290.676 218.857 273.561 233.32 263.071C233.32 263.071 226.566 252.404 216.569 246.758C206.572 241.113 198.973 242.754 198.973 242.754Z" fill="#EBBBE3"/>
<path d="M225.759 270.013C225.109 270.761 224.475 271.52 223.87 272.275C218.077 267.158 211.335 263.231 204.027 260.716C201.672 259.924 199.254 259.337 196.798 258.959C196.851 257.947 196.91 256.955 196.984 255.993C202.556 256.789 213.752 259.643 225.759 270.013Z" fill="white"/>
<path d="M229.386 266.281C228.659 266.971 227.95 267.673 227.277 268.38C214.525 257.659 202.684 254.806 197.134 254.05C197.226 253.025 197.332 252.03 197.449 251.093C203.435 251.874 215.913 254.848 229.386 266.281Z" fill="white"/>
<path d="M198.126 246.542C197.595 256.165 193.486 294.157 211.999 284.701C214.749 283.022 216.904 280.341 219 277.688C223.088 272.311 227.255 266.394 233.324 263.044C230.584 265.076 228.145 267.485 226.078 270.199C220.887 276.343 216.813 286.988 207.725 287.993C191.502 288.922 196.286 256.481 198.126 246.542Z" fill="#632441"/>
<path d="M227.28 268.362C228.969 267.417 230.721 266.585 232.522 265.874C231.87 266.632 231.067 267.244 230.164 267.673C229.261 268.101 228.279 268.336 227.28 268.362Z" fill="#632441"/>
<path d="M201.847 273.786C202.441 278.025 202.201 284.669 206.098 287.281C201.273 285.714 201.089 277.932 201.847 273.786Z" fill="#632441"/>
<path d="M207.99 273.673C207.952 277.952 206.735 284.492 210.208 287.642C205.67 285.386 206.627 277.667 207.99 273.673Z" fill="#632441"/>
<path d="M254.515 271.365C246.787 273.054 216.862 285.938 218.895 297.756C220.927 309.574 240.214 304.085 256.821 310.723C258.545 303.497 259.476 296.104 259.598 288.675C259.674 277.153 254.515 271.365 254.515 271.365Z" fill="#EBBBE3"/>
<path d="M243.861 307.456C242.881 307.314 241.9 307.172 240.93 307.088C242.493 299.659 242.607 291.999 241.265 284.528C240.805 282.079 240.132 279.675 239.254 277.343L240.612 276.688L240.892 276.56L241.901 276.051C243.966 281.242 246.891 292.198 243.861 307.456Z" fill="white"/>
<path d="M248.963 308.334C247.992 308.128 247.017 307.949 246.039 307.789C248.947 291.821 245.736 280.385 243.703 275.236C243.974 275.107 244.243 274.996 244.501 274.893C244.971 274.681 245.439 274.486 245.886 274.308L246.444 274.07C248.671 279.565 252.058 291.588 248.963 308.334Z" fill="white"/>
<path d="M250.778 272.433C242.943 276.352 212.181 289.134 221.202 300.625C224.418 304.644 229.886 305.257 234.776 306.048C241.656 306.922 248.688 307.845 255.297 310.073C248.478 308.516 241.565 308.003 234.613 307.437C229.491 306.893 223.289 306.183 219.778 301.738C209.422 287.771 241.04 275.73 250.778 272.433Z" fill="#632441"/>
<path d="M248.521 308.607C250.329 309.319 252.083 310.16 253.77 311.124C252.768 311.093 251.783 310.853 250.88 310.42C249.976 309.986 249.172 309.369 248.521 308.607Z" fill="#632441"/>
<path d="M228.815 288.985C225.403 291.56 219.492 294.596 219.115 299.275C218.123 294.296 224.821 290.344 228.815 288.985Z" fill="#632441"/>
<path d="M231.912 294.288C228.164 296.337 221.863 298.447 220.797 303.036C220.594 297.974 227.762 295.044 231.912 294.288Z" fill="#632441"/>
<path opacity="0.2" d="M209.008 223.552C196.827 205.776 190.474 182.371 193.052 161.959C195.629 141.547 204.532 121.376 219.799 107.073C235.066 92.7711 279 69.1069 336.346 89.3162C393.692 109.525 416.937 158.815 411.949 202.432C407.983 237.105 370.502 265.369 370.502 265.369C360.399 267.958 320.407 277.104 281.68 267.8C242.288 258.306 219.636 239.064 209.008 223.552Z" fill="#EBEBEB"/>
<path d="M209.008 223.552C197.951 207.192 191.659 187.312 192.503 167.501C193.755 147.777 200.996 128.17 213.854 113.061C226.712 97.9519 245.812 89.0306 264.914 84.3657C302.776 75.2669 347.097 86.4464 376.6 111.74C403.27 134.305 417.222 170.755 411.886 205.323C409.329 220.097 401.287 233.34 391.908 244.77C385.559 252.402 378.441 259.36 370.665 265.533C356.331 269.118 341.667 271.229 326.903 271.833C284.851 274.012 234.372 259.033 209.008 223.552ZM209.008 223.552C234.443 258.931 284.879 273.754 326.882 271.465C341.546 270.794 356.109 268.676 370.357 265.142C374.231 262.077 377.928 258.795 381.432 255.313C395.239 241.529 407.712 224.812 411.182 205.212C417.262 165.822 397.654 124.822 364.262 103.455C327.09 79.1943 277.031 73.8639 237.31 95.1722C210.171 108.712 194.558 137.893 192.651 167.513C191.745 187.297 197.99 207.179 208.989 223.558L209.008 223.552Z" fill="#632441"/>
<g opacity="0.6">
<path d="M226.554 129.19C217.56 136.14 219.147 160.035 229.346 160.79C237.677 161.396 243.999 152.993 245.901 147.02C247.803 141.047 246.996 132.399 241.406 128.943C236.676 126.014 229.849 126.646 226.554 129.19Z" fill="white"/>
<path d="M247.894 117.001C244.777 118.702 245.794 125.443 249.083 127.154C252.371 128.864 256.6 125.238 256.396 122.44C256.193 119.642 250.716 115.473 247.894 117.001Z" fill="white"/>
<path d="M364.093 255.285C366.718 256.216 370.108 252.113 369.392 249.306C368.675 246.499 365.277 246.775 363.757 248.361C362.237 249.946 361.736 254.448 364.093 255.285Z" fill="white"/>
</g>
</svg>
